<?xml version="1.0" standalone="no"?>
<!DOCTYPE svg PUBLIC "-//W3C//DTD SVG 20010904//EN"
 "http://www.w3.org/TR/2001/REC-SVG-20010904/DTD/svg10.dtd">
<svg version="1.0" xmlns="http://www.w3.org/2000/svg"
 width="1772.000000pt" height="1772.000000pt" viewBox="0 0 1772.000000 1772.000000"
 preserveAspectRatio="xMidYMid meet">

<g transform="translate(0.000000,1772.000000) scale(0.100000,-0.100000)"
fill="#000000" stroke="none">
<path d="M8547 17469 c-49 -12 -87 -32 -111 -58 -24 -27 -60 -27 -161 -1 -142
36 -240 23 -286 -39 -33 -45 -51 -46 -129 -10 -67 31 -73 32 -157 25 -102 -8
-149 -32 -177 -91 -20 -42 -20 -42 -141 -5 -85 26 -154 21 -225 -15 -53 -27
-70 -49 -70 -89 0 -14 -3 -26 -7 -26 -3 0 -36 12 -72 26 -47 19 -86 27 -136
28 -113 2 -139 -8 -204 -75 -65 -66 -74 -69 -180 -50 -74 14 -144 3 -198 -30
-37 -23 -73 -69 -73 -93 0 -14 -16 -16 -113 -16 -140 0 -182 -17 -240 -101
-21 -30 -46 -57 -55 -60 -9 -4 -62 -4 -117 -2 -88 5 -105 3 -141 -15 -46 -23
-98 -78 -122 -128 l-16 -34 -88 0 c-97 0 -196 -26 -234 -61 -11 -10 -33 -48
-49 -84 l-29 -65 -106 0 c-102 0 -109 -1 -153 -31 -39 -26 -107 -108 -107
-130 0 -21 -55 -39 -127 -42 -53 -2 -94 -10 -128 -26 -65 -29 -125 -87 -125
-121 0 -14 -13 -40 -29 -58 -24 -26 -38 -32 -70 -32 -102 0 -226 -84 -260
-175 -18 -48 -21 -51 -82 -72 -35 -12 -76 -23 -90 -23 -36 0 -116 -80 -157
-158 -34 -64 -63 -92 -96 -92 -23 0 -119 -45 -158 -73 -37 -27 -73 -84 -89
-138 -7 -24 -16 -49 -20 -54 -8 -10 -89 -39 -141 -49 -53 -11 -111 -68 -150
-146 -21 -41 -38 -88 -38 -105 0 -25 -7 -33 -39 -47 -20 -10 -46 -18 -57 -18
-63 -1 -181 -103 -204 -178 -7 -20 -18 -51 -26 -69 -8 -17 -14 -38 -14 -47 0
-11 -9 -16 -30 -16 -16 0 -30 -4 -30 -10 0 -5 -15 -16 -32 -24 -96 -41 -167
-130 -189 -236 -14 -69 -25 -90 -47 -90 -32 -1 -115 -55 -155 -102 -40 -48
-76 -148 -77 -214 0 -27 -5 -33 -57 -54 -82 -34 -159 -109 -178 -173 -8 -28
-15 -70 -15 -93 0 -59 -14 -85 -63 -116 -49 -31 -104 -87 -141 -142 -23 -35
-26 -48 -26 -135 l-1 -96 -37 -17 c-52 -24 -121 -94 -145 -148 -13 -29 -22
-74 -25 -127 l-4 -82 -42 -27 c-49 -32 -90 -75 -122 -126 -21 -32 -24 -50 -24
-129 l0 -91 -72 -77 c-120 -128 -143 -205 -88 -298 28 -48 26 -58 -22 -87 -24
-14 -54 -35 -67 -46 -36 -31 -61 -135 -61 -252 l0 -97 -60 -56 c-82 -79 -100
-145 -79 -293 l12 -88 -61 -74 c-34 -40 -66 -89 -72 -109 -16 -58 -12 -127 10
-168 27 -51 25 -89 -5 -125 -71 -85 -94 -182 -70 -299 15 -76 15 -80 -4 -118
-11 -21 -31 -52 -45 -68 -41 -49 -62 -187 -32 -212 8 -7 21 -35 31 -63 15 -48
15 -51 -3 -72 -31 -36 -50 -70 -66 -126 -22 -75 -20 -100 16 -181 l31 -71 -39
-71 c-39 -72 -39 -73 -39 -183 0 -89 3 -116 16 -130 40 -46 41 -59 4 -119 -32
-53 -55 -128 -55 -178 0 -13 16 -55 35 -96 19 -40 35 -79 35 -88 0 -8 -10 -46
-21 -85 -29 -95 -22 -163 26 -267 l37 -79 -21 -70 c-36 -120 -23 -215 35 -261
31 -24 33 -87 4 -124 -15 -19 -20 -40 -20 -90 0 -79 16 -127 70 -206 29 -42
39 -65 33 -74 -17 -22 -33 -93 -33 -146 0 -64 21 -116 66 -162 l34 -35 -2
-120 c-2 -134 10 -181 65 -249 32 -40 32 -41 32 -155 1 -136 16 -179 89 -250
40 -39 46 -49 46 -86 0 -24 -5 -46 -11 -50 -8 -4 -10 -32 -7 -79 6 -87 42
-161 105 -213 51 -43 62 -70 55 -143 -3 -36 2 -77 13 -114 14 -49 28 -70 85
-126 l67 -67 5 -89 c3 -66 10 -99 27 -133 31 -59 89 -130 107 -130 18 0 34
-40 34 -85 0 -19 4 -36 8 -39 5 -3 14 -30 21 -60 15 -66 59 -131 105 -152 42
-21 85 -105 97 -192 15 -106 70 -183 152 -213 36 -13 36 -12 88 -211 20 -78
108 -163 179 -174 34 -6 39 -11 58 -58 12 -28 26 -73 32 -101 22 -102 104
-197 179 -210 22 -4 41 -11 41 -16 0 -5 11 -14 24 -18 17 -7 25 -20 29 -48 10
-60 70 -175 110 -210 35 -31 90 -53 133 -53 25 0 44 -18 44 -42 0 -10 5 -18
10 -18 6 0 10 -10 10 -22 0 -39 47 -125 95 -177 52 -56 101 -83 133 -74 12 3
35 0 51 -7 23 -9 33 -24 50 -76 11 -35 21 -70 21 -77 0 -26 65 -90 114 -113
28 -13 69 -24 92 -24 56 0 94 -19 94 -48 0 -32 53 -132 87 -164 42 -39 121
-78 160 -78 56 0 91 -25 117 -84 39 -88 85 -131 174 -160 42 -14 98 -26 123
-26 44 0 47 -2 53 -32 4 -21 27 -52 69 -92 112 -109 107 -106 207 -106 l89 0
38 -51 c71 -96 95 -116 167 -138 37 -12 92 -21 121 -21 47 0 53 -2 59 -24 9
-36 100 -112 164 -137 33 -12 90 -24 135 -27 42 -2 77 -8 77 -12 0 -5 23 -33
51 -64 67 -74 126 -96 252 -96 l92 0 19 -35 c11 -20 41 -56 67 -80 l48 -45
121 0 c134 0 121 6 194 -85 56 -70 158 -95 243 -60 63 26 95 20 132 -25 18
-23 57 -57 87 -77 l55 -37 97 13 c138 18 141 17 186 -34 59 -71 123 -99 223
-99 53 -1 86 3 94 12 25 24 95 14 161 -22 73 -40 160 -57 233 -46 28 4 71 11
97 15 43 7 49 5 90 -28 81 -66 107 -77 181 -77 48 0 79 6 107 20 60 31 129 27
187 -10 41 -26 56 -30 117 -30 39 0 96 7 126 16 92 27 135 28 184 5 107 -50
203 -52 302 -7 68 31 103 32 180 5 90 -31 183 -23 277 25 40 20 80 36 90 36
10 0 44 -13 77 -30 84 -42 164 -42 235 0 28 17 62 39 76 51 32 25 57 26 129 5
30 -8 87 -18 125 -22 l70 -6 57 46 c79 64 100 71 157 49 113 -44 290 -5 305
67 l6 33 88 -8 c111 -11 187 -11 234 -2 29 6 47 21 88 73 39 49 56 64 68 59 9
-4 73 -10 142 -12 l125 -5 62 61 62 62 93 -6 c62 -5 108 -3 137 5 44 12 59 24
146 123 41 45 41 45 85 36 25 -4 72 -8 106 -9 50 0 68 5 106 29 25 16 57 44
71 63 24 31 35 36 115 51 182 35 248 70 292 157 24 47 51 57 175 64 l100 6 80
83 80 84 72 5 c50 4 89 13 128 32 53 27 63 37 145 149 26 37 101 67 163 67 40
0 116 46 144 86 11 16 33 53 48 82 29 54 70 82 119 82 13 0 45 8 72 17 64 22
164 120 183 181 8 23 18 42 23 42 27 0 229 96 259 123 20 18 50 62 68 99 33
72 44 80 149 124 84 35 118 67 157 148 19 41 42 79 50 86 8 7 15 18 15 25 0 8
22 18 53 25 28 6 71 20 94 31 46 22 116 107 127 154 4 17 18 55 32 85 24 53
27 56 77 68 127 30 201 126 241 313 5 22 13 28 47 33 125 20 208 122 209 257
0 76 9 90 71 113 64 23 121 75 155 140 16 31 32 56 37 56 4 0 7 18 7 41 0 22
5 59 11 83 8 34 18 46 45 60 102 48 174 160 174 271 0 77 12 101 67 129 92 46
143 150 143 289 l0 83 33 12 c50 18 109 74 142 133 25 47 30 68 34 161 l6 107
68 69 c41 41 71 81 77 102 15 51 12 125 -5 167 -22 53 -19 68 25 98 48 33 84
79 112 142 18 41 20 60 15 149 -5 94 -4 103 15 120 11 11 45 56 75 102 l56 83
-5 70 c-4 44 -11 76 -22 88 -29 32 -20 65 34 117 28 26 59 67 70 89 27 56 27
165 0 241 l-19 56 39 47 c79 94 100 194 63 312 -9 30 -16 63 -16 74 0 11 23
56 52 101 44 70 51 88 51 130 -1 27 -9 74 -20 104 -27 77 -25 116 7 158 37 48
52 97 53 165 0 55 -30 167 -52 194 -7 8 0 31 21 75 60 121 63 244 11 360 -27
58 -25 86 8 133 24 36 27 49 27 125 0 79 -3 91 -39 162 l-39 78 28 61 c49 110
42 227 -21 335 -28 48 -30 85 -8 145 8 24 18 88 21 141 l6 97 -49 60 c-60 75
-66 94 -41 151 25 57 27 160 3 214 -9 22 -34 63 -56 90 -51 67 -57 94 -31 142
26 47 28 147 6 201 -9 20 -41 63 -72 96 l-56 59 8 81 c11 116 9 139 -15 193
-30 68 -98 154 -122 154 -14 0 -18 5 -14 16 3 9 9 33 12 55 4 21 10 39 15 39
5 0 9 31 9 68 0 60 -4 74 -28 108 -16 21 -49 57 -73 78 -73 66 -87 92 -77 145
24 121 3 175 -109 288 l-63 63 0 85 c0 63 -3 85 -13 85 -7 0 -19 16 -26 35
-17 48 -56 92 -101 115 -43 22 -50 39 -50 136 0 60 -4 76 -30 117 -16 26 -48
59 -70 74 -96 65 -107 79 -113 140 -11 115 -21 138 -87 213 -43 49 -69 70 -85
70 -13 0 -27 5 -30 10 -3 6 -14 10 -24 10 -15 0 -19 11 -24 66 -14 142 -93
242 -229 287 -15 5 -18 19 -18 77 0 40 -4 70 -10 70 -6 0 -21 24 -34 54 -30
68 -84 122 -164 164 -47 25 -62 38 -62 55 0 32 -53 138 -90 180 -35 41 -137
105 -179 113 -20 4 -27 12 -29 31 -1 14 -6 31 -10 37 -5 6 -16 32 -25 57 -43
115 -103 171 -199 185 -65 10 -85 27 -104 91 -10 32 -25 67 -35 78 -9 11 -29
39 -45 63 -36 56 -87 82 -161 82 -64 1 -63 -1 -107 120 -34 96 -131 170 -223
170 -67 0 -89 15 -112 80 -24 64 -102 160 -131 160 -9 0 -28 8 -41 18 -13 11
-42 22 -64 25 -96 16 -114 26 -139 75 -70 136 -138 182 -281 190 l-81 4 -33
64 c-26 50 -45 72 -85 99 -75 50 -100 56 -180 49 l-71 -6 -23 51 c-13 28 -34
59 -48 68 -14 10 -51 39 -81 66 l-56 47 -96 0 -96 1 -34 54 c-53 84 -173 139
-255 117 -60 -17 -103 1 -128 54 -12 24 -26 44 -30 44 -5 0 -31 15 -59 34 -59
41 -122 53 -191 37 -84 -19 -93 -16 -128 39 -70 110 -167 155 -279 132 -65
-14 -121 -16 -121 -4 0 15 -120 103 -181 132 -68 32 -123 38 -152 16 -31 -24
-96 -8 -145 35 -74 65 -162 83 -258 54 -69 -21 -76 -20 -144 24 -96 63 -146
69 -351 45 -53 -6 -58 -5 -87 24 -35 35 -118 68 -192 78 -43 6 -56 3 -80 -15
-16 -11 -36 -21 -45 -21 -9 0 -26 -7 -39 -15 -22 -15 -27 -13 -88 29 -106 72
-182 83 -283 40 -70 -30 -115 -41 -115 -26 0 5 -30 23 -67 38 -56 24 -82 29
-149 29 -72 0 -85 -3 -124 -29 -51 -34 -88 -32 -173 7 -66 30 -119 38 -170 26z
m748 -390 c133 -8 466 -36 530 -44 805 -110 1393 -258 2060 -521 268 -105 706
-309 900 -419 22 -12 94 -53 160 -90 795 -451 1559 -1085 2180 -1810 462 -539
861 -1157 1176 -1818 626 -1316 890 -2815 753 -4282 -177 -1906 -1001 -3668
-2350 -5030 -1300 -1312 -3007 -2153 -4824 -2375 -577 -70 -1260 -79 -1825
-24 -1127 110 -2212 449 -3201 999 -1540 858 -2783 2212 -3506 3820 -365 810
-602 1708 -682 2580 -9 94 -18 190 -21 215 -13 115 -17 837 -6 1025 41 705
159 1361 360 2010 88 281 233 663 361 944 507 1120 1290 2145 2240 2932 1377
1141 3047 1793 4831 1888 196 11 681 10 864 0z"/>
<path d="M8600 16984 c-860 -34 -1607 -170 -2372 -430 -2815 -957 -4895 -3398
-5388 -6325 -85 -507 -105 -762 -105 -1364 1 -523 7 -649 55 -1025 257 -2016
1259 -3860 2815 -5174 1202 -1017 2666 -1660 4220 -1855 386 -49 508 -55 1020
-55 512 0 634 6 1020 55 1990 249 3828 1237 5136 2761 1479 1722 2166 3951
1913 6208 -145 1298 -603 2542 -1338 3630 -182 271 -419 575 -660 850 -141
161 -513 532 -686 685 -1362 1202 -3045 1904 -4855 2024 -166 11 -642 20 -775
15z m-120 -339 c0 -3 16 -173 36 -378 41 -428 41 -507 -1 -592 -51 -105 -135
-153 -286 -162 -183 -12 -293 65 -339 236 -10 37 -91 831 -86 838 4 5 247 25
252 21 2 -3 20 -173 39 -379 47 -516 60 -566 145 -589 83 -22 169 13 200 83
28 60 25 168 -14 572 -18 187 -31 343 -29 348 5 8 83 10 83 2z m1614 -93 c100
-47 146 -125 146 -247 0 -92 -2 -95 -70 -95 l-58 0 10 37 c5 20 8 65 6 100 -3
49 -9 68 -28 89 -38 40 -97 64 -163 64 -54 0 -62 -3 -93 -34 -29 -29 -34 -41
-34 -80 0 -77 31 -118 160 -208 212 -149 279 -344 184 -544 -32 -68 -109 -137
-176 -160 -97 -32 -271 -2 -354 61 -18 14 -46 47 -61 73 -26 43 -28 55 -28
154 0 71 4 111 12 119 14 14 123 26 123 13 0 -5 -7 -31 -15 -58 -21 -68 -19
-153 3 -196 40 -74 181 -114 250 -70 18 11 40 36 48 55 37 90 0 170 -118 258
-95 70 -153 135 -186 205 -23 48 -27 70 -27 147 1 102 20 171 65 233 86 119
254 154 404 84z m-3329 -777 c152 -236 279 -435 282 -441 2 -6 -4 -15 -14 -19
-56 -22 -205 -75 -213 -75 -5 0 -39 45 -74 100 l-65 100 -83 -31 c-46 -17
-102 -38 -125 -46 -24 -8 -43 -18 -43 -22 0 -12 20 -175 25 -207 5 -30 3 -33
-41 -48 -26 -9 -48 -15 -50 -13 -3 4 -131 1112 -128 1116 2 2 49 20 106 41
l102 38 22 -31 c12 -18 146 -225 299 -462z m4945 320 c129 -48 245 -91 258
-96 22 -8 22 -9 6 -51 -10 -24 -20 -46 -24 -51 -3 -4 -50 9 -103 29 -54 20
-99 35 -101 33 -2 -2 -79 -206 -171 -454 -93 -247 -171 -453 -174 -457 -4 -4
-62 13 -129 39 -112 42 -123 48 -118 68 3 12 78 215 166 450 88 236 161 435
163 443 1 9 -31 26 -95 50 -54 20 -98 41 -98 46 0 6 7 29 16 53 l16 42 77 -29
c42 -15 182 -67 311 -115z m-6569 -728 c86 -133 220 -340 297 -459 l141 -217
-106 -67 c-63 -40 -107 -63 -111 -57 -118 185 -397 611 -399 609 -1 -1 54
-154 122 -339 68 -186 127 -346 130 -357 5 -15 -7 -27 -53 -59 l-59 -40 -271
260 c-150 143 -272 258 -272 255 0 -3 88 -142 196 -308 183 -282 195 -303 177
-316 -52 -39 -46 -43 -156 125 -326 500 -487 751 -487 759 0 5 48 40 105 77
l106 69 177 -170 c97 -94 204 -198 237 -231 33 -34 62 -61 66 -61 4 0 -45 140
-107 312 -63 172 -114 314 -114 315 0 4 214 143 220 142 3 0 75 -109 161 -242z
m8064 -83 c218 -155 260 -209 260 -339 0 -82 -23 -136 -88 -202 -56 -58 -108
-77 -197 -71 l-69 5 13 -26 c49 -94 39 -150 -55 -311 -34 -58 -72 -133 -84
-167 l-22 -62 -109 76 c-60 42 -111 77 -112 79 -12 9 32 94 111 212 126 191
138 243 70 302 -18 16 -37 30 -41 30 -4 -1 -72 -93 -152 -206 -79 -113 -148
-208 -152 -210 -7 -5 -208 132 -208 142 0 2 142 205 316 450 l316 445 32 -24
c17 -13 94 -68 171 -123z m-4030 96 c657 -36 1290 -163 1879 -376 2314 -840
3958 -2890 4265 -5322 39 -306 46 -421 46 -822 0 -491 -23 -757 -101 -1183
-203 -1115 -684 -2133 -1429 -3027 -146 -175 -555 -590 -719 -729 -892 -759
-1880 -1244 -2988 -1466 -393 -78 -736 -115 -1163 -122 -332 -6 -570 4 -865
37 -2062 231 -3904 1448 -4936 3262 -773 1356 -1032 2958 -729 4494 367 1855
1519 3457 3165 4402 1076 618 2341 919 3575 852z m-5395 -1385 l385 -385 -93
-92 -93 -93 -386 389 -385 388 88 89 c49 49 91 89 94 89 3 0 178 -173 390
-385z m10865 18 c32 -38 65 -75 72 -84 12 -14 -27 -72 -312 -465 -179 -247
-330 -450 -334 -452 -4 -1 -45 40 -90 92 l-82 95 71 95 c38 53 70 98 70 101 0
3 -39 50 -87 104 l-87 99 -108 -57 -107 -56 -33 32 c-23 24 -29 36 -21 44 13
13 964 517 979 518 6 1 37 -29 69 -66z m-11989 -843 c35 -17 64 -36 64 -43 0
-10 -29 -96 -36 -105 -1 -2 -23 13 -48 32 -118 90 -226 64 -291 -69 -31 -63
-28 -99 13 -140 65 -66 105 -61 287 30 168 84 233 101 332 85 114 -19 232
-102 284 -201 20 -37 24 -59 24 -134 0 -80 -3 -96 -30 -148 -36 -73 -120 -161
-177 -187 -71 -32 -151 -27 -235 15 -38 19 -78 44 -88 55 -18 20 -18 23 -1 75
9 30 19 55 22 55 3 0 26 -18 51 -40 133 -117 261 -104 328 35 35 70 29 111
-22 160 -67 65 -129 60 -288 -20 -60 -30 -134 -60 -164 -66 -159 -33 -348 57
-418 199 -38 77 -40 183 -5 254 91 184 232 240 398 158z m12931 -448 c55 -94
60 -108 47 -119 -9 -6 -198 -116 -420 -244 -222 -127 -407 -235 -410 -240 -3
-5 33 -77 80 -159 47 -82 86 -153 86 -157 0 -5 -19 -18 -42 -31 -34 -18 -44
-20 -53 -10 -14 15 -293 501 -297 517 -2 8 925 551 942 551 3 0 33 -49 67
-108z m554 -3832 c22 -12 49 -60 49 -89 0 -11 -12 -34 -26 -51 l-27 -31 7
-132 c4 -72 10 -135 12 -139 7 -12 218 -10 250 2 36 14 63 4 70 -26 11 -45 -5
-49 -168 -45 l-151 3 6 -178 c10 -249 27 -542 36 -584 4 -24 17 -42 40 -57 90
-61 235 8 325 154 32 52 32 53 1 53 -36 0 -31 14 23 78 90 108 110 128 117
112 10 -27 31 -230 24 -230 -4 0 -19 4 -33 10 -21 8 -26 6 -31 -13 -34 -115
-148 -265 -249 -326 -65 -39 -177 -80 -220 -81 -19 0 -41 -12 -68 -39 -39 -39
-39 -40 -49 -17 -12 26 -58 56 -86 56 -36 0 -157 43 -208 73 -102 61 -228 219
-255 319 -10 36 -11 36 -41 26 -16 -6 -32 -8 -34 -6 -7 6 26 222 35 231 8 9
160 -165 160 -183 0 -5 -11 -10 -25 -10 -31 0 -31 -8 1 -56 36 -55 92 -112
139 -142 33 -22 52 -26 107 -27 84 0 107 18 119 97 8 48 39 606 39 702 l0 38
-147 -3 c-82 -2 -154 0 -160 4 -20 13 -15 55 7 67 14 8 31 8 58 0 20 -6 84
-10 142 -8 l105 3 7 140 c7 117 6 142 -7 151 -22 16 -37 64 -30 96 12 54 84
85 136 58z m-14480 -220 c22 -12 49 -60 49 -89 0 -11 -12 -34 -26 -51 l-27
-31 7 -132 c4 -72 10 -135 12 -139 7 -12 218 -10 250 2 36 14 63 4 70 -26 11
-45 -5 -49 -168 -45 l-151 3 6 -168 c10 -257 28 -555 36 -594 15 -75 111 -101
206 -56 58 27 88 57 140 140 29 46 34 60 24 67 -8 5 -20 9 -26 9 -23 0 -14 21
35 78 91 109 110 128 117 112 10 -27 31 -240 23 -240 -3 0 -18 4 -32 10 -23 8
-26 6 -37 -28 -37 -113 -147 -259 -233 -311 -65 -39 -177 -80 -220 -81 -19 0
-41 -12 -68 -39 -39 -39 -39 -40 -49 -17 -12 26 -58 56 -86 56 -36 0 -157 43
-208 73 -102 61 -228 219 -255 319 -10 36 -11 36 -41 26 -16 -6 -32 -8 -35 -6
-7 7 27 231 36 241 8 9 160 -165 160 -183 0 -5 -6 -10 -12 -10 -7 0 -19 -4
-26 -9 -19 -12 2 -52 64 -120 75 -83 116 -105 196 -106 84 0 107 18 119 97 8
46 39 615 39 707 l0 33 -147 -3 c-82 -2 -154 0 -160 4 -20 13 -15 55 7 67 14
8 31 8 58 0 20 -6 84 -10 142 -8 l105 3 7 140 c7 117 6 142 -7 151 -22 16 -37
64 -30 96 12 54 84 85 136 58z m2493 -4761 c130 -137 236 -253 235 -257 0 -4
-17 -20 -36 -37 l-36 -30 -72 78 -72 78 -362 -340 c-198 -188 -363 -341 -365
-341 -6 0 -171 170 -174 179 -2 5 149 152 335 326 186 175 349 329 363 342
l24 23 -44 47 c-25 27 -59 63 -75 81 l-29 32 34 35 c19 19 35 35 36 35 1 0
108 -113 238 -251z m9502 -3 c29 -13 70 -41 93 -61 40 -36 40 -38 25 -64 -40
-67 -39 -67 -80 -21 -64 70 -140 96 -208 70 -41 -15 -114 -88 -126 -126 -15
-44 0 -90 40 -129 25 -24 41 -30 93 -33 52 -3 82 2 163 29 85 28 114 32 204
33 99 1 109 -1 171 -31 81 -40 160 -121 197 -200 35 -78 36 -176 2 -248 -30
-62 -115 -147 -181 -181 -105 -53 -198 -40 -299 40 -81 64 -87 81 -55 139 l27
47 21 -27 c106 -143 204 -178 303 -110 58 40 98 108 89 152 -9 45 -49 100 -88
118 -49 24 -130 21 -223 -7 -152 -45 -242 -42 -348 11 -68 34 -151 121 -184
190 -21 46 -27 72 -26 128 1 86 29 147 101 217 91 88 190 110 289 64z m-9034
-428 l57 -53 -260 -470 c-143 -258 -266 -480 -272 -492 -12 -22 -15 -21 -105
58 l-93 81 37 66 c20 37 48 86 61 108 l23 41 -103 91 -103 90 -94 -69 c-52
-38 -99 -68 -105 -68 -18 0 -68 50 -59 59 5 4 211 152 458 328 l449 321 26
-19 c14 -11 52 -43 83 -72z m8821 -339 c238 -192 433 -353 434 -357 1 -4 -21
-25 -49 -47 -29 -22 -71 -55 -94 -74 l-43 -33 -93 76 c-51 42 -95 76 -98 76
-5 0 -184 -141 -203 -159 -5 -5 15 -58 44 -120 l52 -111 -29 -22 c-16 -13 -32
-23 -37 -23 -5 0 -117 227 -248 505 -191 403 -237 507 -227 516 17 16 152 124
156 124 2 0 197 -158 435 -351z m-8495 89 c47 -35 90 -66 95 -69 5 -4 -122
-188 -282 -409 -160 -221 -288 -406 -286 -411 3 -4 68 -53 145 -109 l139 -100
-27 -40 c-15 -22 -32 -38 -38 -36 -11 4 -452 321 -472 340 -9 9 50 97 284 421
333 461 343 475 350 475 3 0 45 -28 92 -62z m7733 -123 c39 -21 139 -120 139
-138 -1 -7 -16 -29 -35 -50 l-34 -39 -15 31 c-65 125 -166 162 -274 100 -88
-50 -111 -112 -72 -189 38 -74 93 -85 325 -66 156 13 265 -22 356 -117 98
-102 137 -264 89 -375 -13 -30 -43 -71 -74 -100 -107 -101 -240 -137 -344 -92
-56 24 -132 99 -160 157 -14 30 -14 33 17 72 18 23 36 41 39 40 4 0 20 -27 37
-61 34 -70 102 -135 152 -144 71 -13 174 39 209 108 31 59 -7 153 -75 187 -53
27 -105 32 -208 20 -66 -7 -110 -7 -155 1 -178 32 -316 184 -326 360 -4 70 -2
79 30 140 74 144 256 218 379 155z m-7252 -196 l102 -60 -20 -32 c-75 -124
-481 -820 -481 -826 0 -5 68 -47 150 -95 83 -48 150 -90 150 -92 0 -6 -25 -52
-39 -73 -7 -11 -62 17 -270 139 l-260 154 27 46 c354 605 528 900 533 900 3 0
51 -27 108 -61z m6706 -594 c125 -239 231 -437 236 -440 5 -4 78 30 163 75
165 86 158 85 190 23 l16 -31 -261 -136 c-143 -75 -265 -137 -270 -139 -9 -2
-121 206 -425 790 l-95 182 108 55 c59 30 109 55 110 55 0 1 103 -195 228
-434z m-5970 215 c121 -57 222 -105 224 -107 3 -2 -5 -23 -17 -48 l-21 -45
-43 19 c-24 11 -87 40 -142 65 -54 26 -100 45 -102 43 -11 -11 -142 -302 -139
-307 2 -4 56 -31 119 -60 l114 -53 -21 -43 c-11 -24 -24 -44 -28 -44 -4 0 -55
23 -115 50 -59 28 -111 49 -116 48 -9 -3 -188 -381 -188 -395 0 -5 72 -41 161
-82 88 -41 161 -77 163 -80 2 -3 -6 -25 -18 -48 l-21 -42 -275 128 c-182 85
-274 134 -272 143 2 7 105 232 230 500 l227 486 30 -13 c16 -7 129 -59 250
-115z m5649 -451 c175 -253 316 -462 314 -464 -9 -8 -203 -85 -214 -85 -7 0
-43 43 -79 95 -37 52 -71 95 -76 95 -9 0 -202 -76 -229 -90 -15 -8 -15 -17 1
-117 10 -59 18 -114 19 -121 0 -14 -68 -47 -78 -37 -5 5 -166 1001 -174 1079
-3 28 1 31 87 67 50 21 95 39 101 39 6 0 153 -207 328 -461z m-5041 219 c158
-55 248 -171 234 -305 -15 -144 -118 -252 -239 -253 l-48 0 36 -47 c20 -26 41
-59 46 -73 14 -35 3 -121 -32 -256 -16 -64 -30 -140 -30 -170 0 -30 -1 -54 -2
-54 -2 0 -57 20 -123 44 l-120 44 1 50 c1 30 21 107 50 193 70 210 64 277 -28
314 -22 9 -42 15 -43 13 -2 -2 -42 -113 -90 -248 -48 -135 -88 -246 -90 -248
-5 -5 -208 68 -219 78 -4 5 73 239 174 523 l183 515 141 -50 c78 -27 167 -59
199 -70z m4262 -7 c63 -28 111 -89 136 -171 34 -113 17 -183 -63 -260 l-42
-40 49 0 c63 0 141 -36 179 -81 16 -19 41 -59 55 -89 21 -47 25 -70 26 -152 0
-91 -2 -98 -30 -139 -17 -23 -53 -55 -82 -71 -68 -38 -503 -170 -509 -154 -11
29 -311 1041 -309 1043 2 3 318 99 388 118 73 19 154 18 202 -4z m-2584 -301
c217 -21 318 -147 343 -425 8 -83 -8 -266 -29 -350 -35 -136 -105 -239 -192
-283 -74 -38 -136 -44 -349 -32 -109 6 -199 12 -200 13 0 1 12 236 27 522 15
286 28 533 28 548 l1 29 143 -7 c78 -4 181 -11 228 -15z m949 -38 l0 -49 -97
-6 c-54 -4 -124 -7 -155 -7 l-58 0 0 -47 c0 -27 3 -105 7 -175 l6 -128 134 7
133 6 0 -51 0 -50 -131 -7 -131 -8 6 -156 c4 -86 9 -187 12 -225 l6 -68 107 6
c58 3 140 7 181 8 l75 3 3 -51 3 -51 -301 -13 c-165 -7 -303 -10 -307 -7 -7 7
-58 1085 -52 1091 5 5 341 22 472 24 l87 2 0 -48z"/>
<path d="M6360 15929 c0 -18 52 -463 55 -467 2 -2 197 67 202 72 2 2 -242 394
-253 405 -2 2 -4 -2 -4 -10z"/>
<path d="M13045 15048 c-55 -78 -101 -147 -103 -154 -5 -19 80 -64 120 -64 92
0 216 166 193 257 -7 29 -78 103 -98 103 -7 -1 -57 -65 -112 -142z"/>
<path d="M8570 15289 c-1373 -57 -2692 -553 -3759 -1412 -940 -757 -1651
-1763 -2048 -2897 -304 -867 -418 -1827 -328 -2750 165 -1679 981 -3225 2275
-4307 1626 -1362 3799 -1832 5855 -1268 814 224 1605 626 2274 1158 1897 1507
2786 3926 2316 6303 -305 1542 -1175 2927 -2437 3879 -573 433 -1164 744
-1843 970 -591 197 -1144 297 -1790 325 -249 10 -244 10 -515 -1z m645 -189
c417 -27 744 -77 1145 -176 1887 -466 3466 -1814 4233 -3615 484 -1135 618
-2394 386 -3614 -37 -194 -96 -446 -108 -458 -5 -5 -57 17 -117 49 -139 73
-224 115 -296 144 -32 13 -58 27 -58 31 0 3 7 26 15 49 8 23 15 73 15 111 0
58 -5 78 -31 126 -17 32 -46 76 -64 99 -34 41 -189 169 -206 169 -5 0 -17 -16
-27 -35 -37 -71 -95 -175 -102 -185 -4 -5 -24 -41 -45 -80 -53 -99 -50 -97
-117 -77 -32 9 -58 19 -58 22 0 3 30 37 66 75 37 39 82 93 100 122 30 46 34
60 34 117 0 36 4 67 9 71 11 6 82 16 120 17 52 0 216 108 294 192 57 62 79
117 84 204 2 41 -1 80 -6 86 -4 6 -11 31 -15 56 -10 69 -38 150 -52 150 -6 0
-17 14 -24 30 -19 45 -103 116 -146 125 -20 3 -44 10 -53 15 -42 23 -91 43
-141 60 -83 27 -124 46 -195 90 -36 22 -68 40 -71 40 -3 0 -20 6 -37 14 -18 8
-72 32 -122 52 -49 21 -141 69 -203 106 -62 37 -116 68 -120 68 -15 0 -207
103 -266 142 -104 70 -201 153 -327 278 -83 83 -198 223 -210 257 -4 10 -127
149 -194 218 -44 46 -98 108 -115 134 -8 12 -37 53 -63 89 -107 148 -293 478
-322 572 -4 14 -30 68 -57 120 -42 82 -80 162 -133 285 -7 17 -20 55 -30 85
-9 30 -19 62 -22 70 -48 132 -127 364 -135 395 -25 98 -49 132 -142 199 -36
27 -42 28 -110 22 -39 -3 -80 -8 -91 -10 -11 -2 -49 -7 -85 -11 -106 -12 -223
-33 -325 -60 -33 -9 -69 -18 -80 -19 -11 -2 -38 -9 -60 -14 -71 -19 -272 -52
-318 -52 -24 0 -70 -9 -101 -20 -32 -11 -86 -22 -120 -24 -33 -2 -92 -13 -131
-24 -38 -11 -92 -23 -120 -27 -86 -11 -109 -14 -135 -20 -14 -3 -63 -12 -110
-20 -188 -31 -217 -36 -275 -50 -55 -13 -113 -22 -190 -30 -78 -9 -226 -38
-280 -55 -33 -11 -94 -22 -135 -24 -41 -2 -100 -8 -130 -14 -30 -6 -71 -13
-90 -15 -19 -3 -42 -8 -50 -11 -15 -6 -86 -16 -295 -41 -66 -7 -152 -21 -190
-29 -39 -8 -93 -17 -120 -20 -28 -3 -70 -8 -95 -11 -25 -2 -72 -7 -105 -10
-33 -3 -87 -14 -120 -24 -33 -11 -91 -22 -129 -26 -38 -3 -81 -12 -96 -20 -16
-8 -63 -61 -106 -117 -43 -57 -83 -108 -89 -114 -34 -38 -115 -142 -115 -149
0 -7 -64 -99 -90 -129 -59 -68 -148 -148 -204 -186 -13 -8 -75 -63 -137 -121
-63 -59 -130 -120 -149 -135 -19 -16 -42 -35 -50 -43 -8 -8 -49 -40 -91 -71
-42 -31 -86 -65 -97 -76 -11 -10 -82 -64 -157 -119 -75 -55 -191 -141 -258
-190 -67 -50 -158 -112 -201 -138 -44 -27 -113 -74 -155 -106 -86 -66 -249
-181 -256 -181 -3 0 -26 -16 -52 -35 -126 -93 -157 -112 -318 -196 -309 -160
-377 -191 -440 -199 -33 -5 -85 -15 -115 -25 -30 -9 -77 -22 -105 -30 -27 -7
-75 -20 -105 -28 -30 -9 -99 -27 -153 -42 -58 -16 -122 -42 -160 -64 -52 -32
-72 -52 -124 -131 l-63 -94 0 -149 0 -149 36 -54 c53 -79 174 -188 265 -237
43 -23 79 -45 79 -49 0 -5 -15 -8 -32 -8 -90 0 -218 -64 -273 -136 -58 -76
-75 -137 -74 -262 1 -85 6 -125 21 -166 l20 -54 -54 -84 c-80 -123 -93 -158
-93 -253 0 -44 4 -98 8 -121 l8 -40 -43 -14 c-78 -25 -192 -71 -271 -111 -43
-21 -80 -39 -82 -39 -7 0 -82 243 -120 391 -263 1019 -270 2093 -20 3089 121
482 267 875 490 1315 486 962 1214 1781 2115 2382 489 326 1047 592 1611 767
480 149 930 228 1529 269 114 8 541 6 685 -3z m2027 -2966 c33 -11 52 -24 65
-47 26 -45 78 -170 102 -247 85 -269 159 -470 182 -495 5 -5 9 -15 9 -23 0 -8
38 -92 84 -186 46 -94 94 -196 107 -226 12 -30 27 -60 33 -65 6 -6 34 -55 61
-110 52 -103 181 -304 235 -365 16 -19 47 -53 68 -75 20 -22 62 -72 92 -110
30 -39 57 -72 60 -75 3 -3 39 -52 80 -110 48 -68 139 -171 264 -298 161 -163
208 -205 304 -268 63 -42 124 -79 135 -85 12 -5 36 -17 52 -27 69 -42 163 -90
210 -108 59 -22 153 -70 176 -90 8 -8 19 -14 22 -14 4 0 36 -18 72 -40 36 -22
121 -63 188 -91 67 -28 131 -54 142 -59 11 -5 70 -30 130 -55 61 -25 113 -50
118 -54 9 -9 -77 -44 -163 -67 -76 -20 -302 -22 -445 -5 -119 14 -1440 14
-1635 0 -140 -10 -425 -20 -1105 -39 -176 -5 -360 -14 -410 -20 -49 -7 -227
-14 -394 -16 -320 -5 -339 -3 -576 51 -33 7 -78 17 -100 21 l-40 7 40 8 c50
10 246 17 910 30 301 6 649 19 825 30 258 18 430 22 1115 24 446 2 844 5 885
5 l75 2 -75 19 c-71 18 -111 19 -840 16 -658 -3 -807 -6 -1065 -24 -427 -31
-992 -46 -1560 -41 l-490 3 -80 37 c-44 20 -89 48 -100 61 -11 13 -28 27 -37
30 -27 10 -22 23 24 64 111 99 314 310 406 421 54 66 64 83 35 61 -27 -20
-317 -313 -417 -422 -88 -96 -90 -97 -135 -97 -25 0 -66 8 -91 18 -41 15 -115
17 -805 20 -552 2 -765 0 -780 -8 -15 -8 -107 -10 -304 -8 -312 3 -301 1 -301
69 l0 36 98 7 c206 15 428 75 890 241 23 8 69 33 101 55 33 22 105 63 160 91
137 67 340 191 349 212 2 4 8 7 14 7 8 0 123 83 138 100 3 3 30 25 60 50 30
24 64 54 75 65 89 88 248 215 363 289 80 52 319 176 340 176 11 0 87 72 192
185 33 35 108 152 134 210 10 22 25 53 32 68 21 43 17 75 -12 102 -28 26 -53
31 -82 16 -60 -32 -206 -63 -245 -53 -14 3 -18 1 -15 -9 3 -9 23 -15 58 -17
63 -4 97 -25 141 -88 27 -40 29 -49 20 -72 -11 -25 -21 -38 -96 -123 -46 -51
-171 -159 -185 -159 -16 0 -76 -28 -129 -62 -59 -37 -95 -36 -131 2 -30 32
-60 116 -60 167 0 37 17 100 38 141 30 60 210 162 285 162 37 0 34 16 -5 29
-29 10 -41 7 -123 -32 -134 -66 -212 -80 -555 -102 -52 -4 -153 -13 -225 -21
-76 -8 -231 -14 -374 -14 l-245 0 -28 27 c-25 24 -37 27 -118 31 -50 3 -90 8
-90 13 0 16 -123 10 -211 -10 -157 -35 -269 -87 -269 -126 0 -10 14 -7 53 13
163 84 231 98 400 83 180 -16 240 -48 269 -142 9 -33 8 -49 -7 -102 -40 -131
-104 -222 -176 -245 -39 -13 -217 -13 -225 0 -8 13 39 79 53 74 11 -5 26 26
37 75 5 24 2 27 -28 33 -18 4 -52 20 -74 36 l-40 29 -25 -32 -25 -32 -17 60
c-10 32 -17 82 -17 110 1 73 -10 84 -41 44 -14 -19 -29 -50 -35 -70 -11 -41
-118 -179 -138 -179 -17 0 -17 -5 0 72 8 35 17 81 21 102 6 36 5 39 -10 26
-23 -19 -52 -79 -61 -125 -4 -22 -12 -44 -18 -50 -18 -17 -121 -99 -150 -120
-16 -11 -33 -25 -40 -30 -6 -6 -54 -39 -106 -74 -89 -60 -167 -121 -156 -121
26 0 285 162 389 242 39 31 48 23 26 -25 -10 -22 -222 -169 -279 -194 -40 -16
-47 -33 -13 -33 55 0 228 122 344 243 l37 39 43 -22 c76 -38 97 -70 48 -70
-29 0 -214 -90 -285 -138 -86 -59 -369 -195 -669 -321 -93 -40 -180 -77 -192
-83 -13 -6 -25 -9 -27 -7 -3 2 30 22 72 43 132 68 354 207 382 241 7 8 -30 -9
-82 -37 -51 -28 -124 -67 -163 -88 -38 -20 -99 -53 -135 -73 -128 -70 -163
-87 -177 -87 -8 0 -27 -7 -41 -15 -28 -15 -99 -47 -200 -89 -31 -13 -70 -31
-87 -40 -16 -9 -35 -16 -40 -16 -6 0 -26 -13 -45 -30 -41 -34 -24 -40 37 -13
21 9 58 25 83 36 106 47 266 129 283 146 12 12 77 15 77 4 -1 -9 -305 -160
-400 -198 -36 -15 -78 -33 -95 -40 -64 -29 -126 -48 -132 -41 -4 4 -1 11 7 16
35 23 -16 9 -74 -20 -75 -36 -122 -80 -147 -134 -38 -84 -15 -135 81 -179 44
-20 66 -21 792 -26 410 -3 750 -9 754 -13 4 -5 -24 -8 -63 -8 -39 0 -106 -6
-149 -14 -44 -8 -108 -17 -143 -19 -61 -5 -80 -15 -81 -44 0 -10 -80 -13 -365
-13 -351 0 -365 1 -365 19 0 10 -9 29 -19 42 -19 23 -23 24 -178 24 -107 0
-164 -4 -178 -12 -17 -10 0 -13 95 -13 63 -1 135 -5 159 -9 41 -8 71 -31 71
-54 0 -16 -214 0 -305 22 -69 16 -97 18 -200 11 -173 -12 -512 -12 -520 0 -4
6 -93 10 -233 11 -125 0 -245 4 -267 8 l-40 7 30 7 c17 4 64 12 105 17 41 6
93 15 115 21 22 6 67 18 100 26 92 24 189 55 199 65 6 4 16 8 23 8 7 0 48 16
90 36 106 48 124 56 228 101 57 25 176 97 325 196 280 187 247 165 345 229 44
28 118 76 165 107 47 30 232 165 413 300 180 136 377 282 437 326 61 44 120
89 133 100 12 11 58 52 102 90 119 106 254 244 350 360 84 102 211 275 238
325 64 119 145 161 335 175 45 3 115 12 155 19 39 8 151 22 247 31 96 9 207
23 245 30 39 8 113 21 165 30 52 9 129 23 170 30 41 8 118 21 170 30 223 37
271 45 385 66 66 11 138 25 160 30 155 33 206 41 212 36 3 -4 1 -18 -6 -30
-13 -24 -87 -57 -127 -57 -17 0 -23 -8 -27 -36 -3 -20 -14 -45 -23 -55 -16
-18 -16 -19 10 -19 31 0 126 -38 126 -51 0 -4 -10 -11 -22 -15 l-22 -7 24 -19
c20 -16 21 -21 9 -28 -35 -22 -49 -35 -49 -47 0 -15 29 -32 62 -36 17 -2 30
-17 48 -56 18 -39 29 -51 42 -48 22 6 55 -28 37 -39 -18 -11 16 -22 69 -23 35
-1 42 -4 42 -21 0 -11 7 -37 15 -56 14 -34 17 -36 52 -32 21 3 45 8 54 12 12
5 18 -2 28 -33 l12 -41 29 33 30 32 20 -25 c28 -36 26 -68 -5 -76 -24 -6 -36
-24 -16 -24 13 0 24 -55 16 -80 -9 -29 -17 -25 -52 24 -22 30 -41 46 -63 51
-17 4 -33 5 -35 3 -3 -2 28 -37 68 -76 l73 -73 28 22 27 22 16 -23 c12 -17 18
-19 24 -9 4 7 3 21 -2 30 -7 14 -2 23 20 41 16 13 45 46 64 74 27 39 33 54 25
68 -11 20 17 60 35 49 6 -3 7 -1 3 5 -3 6 1 15 9 19 14 8 13 12 -4 32 -15 18
-19 33 -15 79 5 88 7 91 13 32 5 -47 9 -55 30 -60 27 -6 50 -35 38 -47 -5 -4
-12 -1 -17 7 -8 12 -10 11 -11 -5 -6 -78 -7 -113 -3 -136 5 -24 9 -26 47 -25
23 0 54 -3 69 -7 24 -6 27 -4 33 23 7 31 23 38 43 18 6 -6 15 -8 19 -4 5 4 -6
20 -23 35 -29 26 -30 29 -12 40 22 14 57 -6 77 -43 15 -27 10 -62 -8 -58 -7 1
-9 -2 -5 -9 3 -6 -6 -22 -21 -35 l-28 -24 36 0 c33 0 36 2 39 33 3 30 5 32 45
34 23 1 56 9 73 18 17 9 35 13 41 10 5 -4 8 -3 7 2 -2 5 11 26 28 47 l32 38
10 -30 c8 -23 6 -38 -9 -72 -38 -86 -17 -90 35 -6 42 65 56 108 45 129 -6 10
-5 18 2 23 8 4 9 3 5 -4 -4 -7 -5 -12 -2 -12 2 0 12 -3 21 -6 9 -4 15 -3 13 2
-2 8 117 250 199 404 33 62 73 164 73 187 0 8 12 30 26 48 14 19 41 69 59 112
27 62 32 80 22 92 -9 12 -9 13 0 8 8 -5 14 2 18 20 16 73 18 68 -33 54 -17 -5
-32 -6 -32 -2 0 5 18 11 39 15 22 3 41 13 45 22 5 14 15 15 54 10 26 -3 68
-13 94 -22z m-334 -46 c-3 -7 -16 -13 -31 -13 -33 -2 -34 3 -4 15 31 12 39 12
35 -2z m39 6 c-3 -3 -12 -4 -19 -1 -8 3 -5 6 6 6 11 1 17 -2 13 -5z m-132 -33
c-2 -3 -18 -5 -37 -5 -18 1 -41 -3 -50 -8 -11 -5 -18 -5 -18 1 0 5 8 12 18 14
23 7 92 5 87 -2z m74 -22 c-20 -20 -44 -25 -53 -10 -4 5 3 7 14 4 14 -4 19 -1
15 8 -3 9 3 14 19 15 23 2 23 1 5 -17z m-194 1 c-3 -5 -12 -7 -20 -3 -21 7
-19 13 6 13 11 0 18 -4 14 -10z m-30 -20 c10 -11 22 -17 26 -14 5 3 6 -2 3
-10 -6 -17 -39 -30 -52 -22 -5 3 -9 -1 -9 -9 0 -8 4 -12 9 -9 7 5 9 -2 7 -23
0 -4 8 -11 18 -15 12 -5 8 -6 -14 -5 -22 1 -33 6 -33 17 0 8 -4 21 -9 28 -6
10 -12 7 -25 -14 -10 -14 -19 -36 -20 -48 -2 -12 -9 -32 -16 -46 -8 -14 -13
-32 -12 -40 2 -9 -2 -8 -9 4 -9 15 -9 21 -1 24 7 2 12 8 12 13 0 6 -4 7 -10 4
-6 -3 -10 5 -10 19 0 20 4 24 21 21 20 -4 20 -3 5 20 -20 30 -22 55 -4 37 17
-17 38 -15 38 4 0 9 9 18 20 21 11 3 20 9 20 14 0 5 -7 6 -16 2 -12 -4 -15 -2
-12 8 6 16 49 13 60 -5 5 -7 8 -7 8 0 0 29 -64 48 -72 22 -3 -7 -18 -12 -34
-13 -21 0 -29 -5 -28 -17 2 -23 -33 -24 -58 -1 -14 13 -21 14 -30 5 -9 -9 -7
-15 8 -26 18 -14 18 -15 -7 -12 -22 3 -25 0 -21 -24 6 -43 -16 -46 -55 -9 -32
31 -35 33 -47 17 -19 -26 -36 -22 -36 7 0 18 -5 25 -20 25 -11 0 -20 -4 -20
-10 0 -5 7 -10 15 -10 18 0 20 -27 3 -33 -10 -3 -10 -7 1 -20 14 -18 35 -13
25 6 -3 7 2 3 10 -7 9 -11 16 -23 16 -27 0 -5 16 -11 35 -15 43 -8 55 -22 14
-16 -16 2 -29 0 -28 -4 4 -22 -2 -33 -16 -28 -8 4 -15 10 -15 16 0 5 4 7 9 4
5 -3 12 1 15 10 5 12 2 15 -10 10 -8 -3 -20 -6 -25 -6 -9 0 -49 -79 -55 -108
-1 -8 -9 -21 -17 -30 -8 -10 -12 -24 -9 -32 4 -11 1 -10 -12 3 -19 18 -14 37
10 37 8 0 14 4 14 9 0 6 -12 6 -30 0 -16 -6 -30 -15 -30 -21 0 -5 -3 -7 -8 -5
-4 3 -20 -6 -37 -19 -28 -23 -29 -23 -5 -18 20 5 22 3 10 -5 -8 -6 -24 -11
-35 -10 -16 0 -12 6 20 34 22 20 56 42 76 51 35 16 36 19 28 48 -11 38 5 83
32 91 21 7 25 20 9 30 -6 4 -8 15 -5 25 6 18 4 19 -47 4 -70 -20 -98 -34 -98
-51 0 -8 -3 -12 -7 -10 -5 3 -9 -10 -10 -29 -1 -24 3 -34 13 -34 8 0 14 -5 14
-10 0 -12 -41 6 -51 23 -4 5 -12 6 -19 2 -8 -5 -4 -15 15 -35 30 -32 62 -30
75 4 9 21 9 21 9 0 1 -11 -5 -29 -13 -39 -13 -19 -15 -18 -54 9 -22 15 -43 34
-46 43 -4 9 -13 12 -26 8 -22 -7 -54 11 -45 25 3 5 -3 6 -14 3 -10 -3 -21 0
-25 5 -3 6 7 9 25 8 17 -1 38 4 45 12 12 11 14 10 14 -7 0 -12 3 -21 8 -22 42
-4 64 -3 68 3 3 4 -3 8 -13 8 -15 0 -16 2 -3 10 13 8 12 10 -3 10 -10 0 -15 5
-12 10 3 6 16 10 27 10 27 0 19 8 -12 13 -13 2 -26 9 -28 15 -5 15 3 15 28 0
17 -11 22 -10 30 2 7 11 12 12 18 4 11 -18 32 9 21 27 -5 8 -9 9 -9 3 0 -6
-13 -9 -31 -6 -22 3 -30 1 -25 -7 4 -6 2 -11 -3 -11 -6 0 -11 6 -11 13 -1 6
-9 2 -19 -11 -14 -15 -21 -18 -25 -10 -5 10 -7 10 -12 1 -3 -7 -15 -11 -27 -9
-12 1 -16 1 -9 -1 6 -3 12 -9 12 -14 0 -6 -4 -7 -10 -4 -5 3 -10 2 -10 -4 0
-5 8 -12 18 -14 9 -3 -2 -5 -25 -6 -38 -1 -42 -4 -45 -28 -6 -45 11 -83 35
-83 21 -1 21 -1 3 -15 -18 -13 -18 -14 3 -12 11 1 21 5 21 10 0 5 7 7 15 3 8
-3 15 -1 15 4 0 6 8 10 17 10 26 0 2 -19 -43 -35 -35 -12 -40 -11 -48 3 -13
24 -25 30 -46 25 -23 -6 -36 15 -20 30 10 9 12 8 7 -5 -5 -14 -1 -17 18 -16
24 2 36 18 14 18 -6 0 -9 6 -6 13 7 19 -11 57 -27 57 -10 0 -13 9 -11 30 3 21
1 28 -7 24 -6 -4 -8 -3 -5 3 8 13 55 14 63 2 3 -5 -1 -6 -9 -3 -8 3 -18 1 -21
-4 -3 -6 10 -12 30 -14 19 -2 37 0 40 4 3 4 0 8 -5 8 -6 0 -11 6 -11 13 0 17
109 42 265 63 6 0 17 3 25 6 27 10 164 32 210 34 25 1 52 5 60 8 23 9 101 24
136 25 19 1 38 -7 49 -19z m90 10 c-3 -5 -12 -10 -18 -10 -7 0 -6 4 3 10 19
12 23 12 15 0z m125 -24 c0 -11 -19 -15 -25 -6 -3 5 1 10 9 10 9 0 16 -2 16
-4z m140 -31 c-7 -8 -16 -15 -21 -15 -5 0 -1 8 9 18 20 22 31 19 12 -3z m-279
-2 c13 -16 12 -17 -3 -4 -17 13 -22 21 -14 21 2 0 10 -8 17 -17z m-40 -33 c23
-13 25 -30 2 -30 -9 0 -13 3 -10 7 4 3 -1 12 -11 19 -20 16 -9 18 19 4z m299
0 c0 -5 -2 -10 -4 -10 -3 0 -8 5 -11 10 -3 6 -1 10 4 10 6 0 11 -4 11 -10z
m-203 -67 c-3 -10 -5 -4 -5 12 0 17 2 24 5 18 2 -7 2 -21 0 -30z m-977 10 c0
-16 -9 -18 -62 -16 -41 1 -54 -1 -38 -5 14 -5 20 -11 14 -15 -11 -6 -46 -3
-62 6 -4 3 -15 1 -26 -2 -18 -7 -18 -8 0 -25 17 -18 17 -18 -17 -12 -25 5 -30
4 -19 -3 9 -7 10 -11 3 -11 -22 0 -25 21 -5 27 11 3 18 11 16 17 -5 14 55 36
102 37 16 0 38 4 49 9 32 14 45 11 45 -7z m1140 -38 c-6 -8 -8 -20 -4 -26 4
-8 3 -9 -4 -5 -7 4 -12 2 -12 -5 0 -7 -3 -10 -6 -7 -3 4 0 17 7 30 7 12 14 26
15 31 4 19 6 21 11 9 3 -7 0 -19 -7 -27z m-1370 0 c0 -7 -87 -32 -122 -34 -19
-1 -25 -36 -8 -46 6 -4 8 -11 5 -16 -4 -5 1 -9 10 -9 12 0 15 -6 10 -20 -4
-11 -2 -20 4 -20 6 0 11 -5 11 -11 0 -8 -4 -8 -14 0 -11 10 -16 8 -21 -8 -9
-28 -54 -28 -97 0 -33 21 -26 21 38 1 17 -5 37 -7 43 -3 20 13 20 48 0 67 -13
11 -17 24 -13 40 5 19 2 24 -12 25 -11 1 -3 5 16 10 19 4 41 6 48 4 6 -2 12 0
12 5 0 5 8 11 18 13 24 6 72 8 72 2z m1096 -30 c3 -19 12 -35 18 -35 7 0 21
-7 32 -15 16 -13 16 -14 2 -9 -10 3 -18 1 -18 -4 0 -6 7 -12 17 -14 15 -3 15
-4 0 -16 -14 -12 -18 -9 -32 18 -26 51 -45 110 -35 110 5 0 12 -16 16 -35z
m95 21 c-9 -11 -6 -15 15 -20 14 -4 24 -9 22 -12 -3 -2 -18 0 -33 6 -23 9 -25
13 -15 25 7 8 15 15 17 15 3 0 0 -6 -6 -14z m-1097 -5 c4 -5 -3 -7 -14 -4 -23
6 -26 13 -6 13 8 0 17 -4 20 -9z m79 -8 c-7 -2 -21 -2 -30 0 -10 3 -4 5 12 5
17 0 24 -2 18 -5z m107 -3 c0 -5 -7 -7 -15 -4 -8 4 -15 8 -15 10 0 2 7 4 15 4
8 0 15 -4 15 -10z m531 -14 c-7 -8 -9 -21 -5 -27 5 -8 3 -9 -6 -4 -9 5 -11 4
-6 -3 11 -18 54 -11 51 8 -1 8 -8 14 -13 13 -6 -2 -9 4 -6 12 5 12 12 10 36
-10 16 -14 33 -25 36 -25 27 -1 32 -18 21 -68 -6 -29 -15 -50 -20 -46 -5 3 -6
10 -2 17 3 6 7 28 8 49 1 29 -2 38 -11 34 -8 -3 -18 3 -24 12 -8 14 -9 13 -6
-8 3 -14 5 -29 5 -33 1 -5 7 -5 14 -1 6 4 9 4 5 -1 -4 -4 -3 -16 3 -26 5 -11
6 -19 1 -19 -4 0 -16 16 -25 35 -15 32 -19 34 -37 23 -14 -9 -16 -14 -7 -20
25 -16 -4 -7 -39 11 -32 17 -34 20 -17 30 17 11 17 12 -1 26 -11 8 -15 15 -10
15 6 0 15 -5 22 -12 9 -9 12 -9 12 0 0 14 23 42 29 36 2 -2 -2 -10 -8 -18z
m257 -11 c-3 -28 -1 -35 13 -35 9 0 20 -7 23 -16 4 -10 2 -13 -7 -7 -18 11
-30 11 -47 -2 -23 -19 -49 -25 -55 -15 -4 6 2 11 12 11 17 1 17 2 0 6 -20 5
-13 23 9 23 8 0 14 -7 14 -16 0 -32 19 -2 26 41 7 53 18 61 12 10z m-1104 16
c3 -5 0 -11 -7 -14 -8 -3 -14 1 -14 9 0 16 13 19 21 5z m28 -39 c-8 -2 -8 -8
2 -18 17 -16 30 -19 21 -4 -3 6 1 10 10 10 11 0 15 -5 11 -15 -3 -9 5 -21 22
-32 15 -9 29 -18 31 -19 1 -2 -4 -13 -13 -26 -9 -12 -16 -19 -16 -15 0 4 -11
-3 -25 -17 -14 -14 -25 -32 -25 -41 0 -8 -5 -15 -11 -15 -5 0 -7 6 -4 13 4 6
0 3 -9 -7 -8 -10 -13 -23 -10 -27 3 -5 -2 -9 -10 -9 -28 0 -17 21 44 82 34 33
60 62 58 63 -19 18 -128 67 -149 67 -28 1 -46 22 -29 33 6 4 10 1 10 -4 0 -6
5 -11 11 -11 5 0 7 5 4 10 -11 17 4 11 27 -12 l22 -22 9 29 c9 25 11 26 20 9
7 -13 7 -19 -1 -22z m121 31 c-7 -2 -19 -2 -25 0 -7 3 -2 5 12 5 14 0 19 -2
13 -5z m-58 -23 c-3 -5 -14 -10 -23 -9 -14 0 -13 2 3 9 27 11 27 11 20 0z
m1278 -21 c-8 -16 -17 -28 -20 -25 -6 5 23 56 31 56 3 0 -2 -14 -11 -31z
m-1243 1 c0 -13 -28 -25 -38 -16 -3 4 0 11 8 16 20 13 30 12 30 0z m883 -20
c-3 -12 -14 -20 -25 -20 -16 0 -18 3 -9 13 6 8 8 17 4 20 -3 4 3 7 14 7 16 0
20 -5 16 -20z m281 -18 c3 -5 -1 -9 -9 -9 -8 0 -12 4 -9 9 3 4 7 8 9 8 2 0 6
-4 9 -8z m-944 -13 c12 -8 9 -10 -13 -6 -39 6 -63 -29 -46 -67 14 -29 27 -33
35 -12 5 13 54 36 76 36 18 0 -48 -80 -76 -91 -16 -7 -42 -24 -58 -37 -16 -13
-31 -23 -33 -21 -7 8 21 34 48 47 26 11 27 14 12 28 -12 13 -19 14 -30 4 -8
-7 -12 -17 -8 -24 3 -6 -2 -4 -12 6 -15 14 -15 18 -4 31 7 7 22 12 33 9 19 -5
19 -4 -2 23 -26 32 -28 50 -7 41 10 -3 15 1 15 14 0 16 14 26 45 29 6 0 17 -4
25 -10z m991 -24 c-16 -35 -35 -49 -24 -17 5 15 32 52 38 52 1 0 -5 -16 -14
-35z m-1561 22 c0 -2 -9 -12 -19 -21 -19 -17 -19 -17 -14 3 3 12 12 21 19 21
8 0 14 -2 14 -3z m450 -17 c0 -5 -4 -10 -10 -10 -5 0 -10 5 -10 10 0 6 5 10
10 10 6 0 10 -4 10 -10z m927 -10 c-7 -8 -19 -28 -27 -44 -11 -21 -16 -25 -18
-12 -2 9 -8 14 -13 11 -5 -4 -9 -1 -9 6 0 7 -3 10 -6 7 -3 -4 1 -17 10 -30 13
-21 13 -25 -1 -43 -15 -20 -15 -20 -10 3 3 12 2 22 -2 22 -4 0 -9 20 -9 44 -2
43 -1 45 30 48 61 7 69 6 55 -12z m83 8 c0 -6 -3 -8 -7 -5 -3 4 -12 2 -20 -5
-11 -8 -12 -7 -7 6 7 18 34 22 34 4z m-1239 -35 c11 -15 11 -16 -1 -5 -8 6
-21 12 -29 12 -14 0 -14 -1 -1 -10 12 -8 9 -10 -12 -10 -15 0 -39 -5 -55 -11
-43 -17 -81 -21 -88 -9 -3 5 -26 10 -50 10 -36 0 -43 3 -38 16 3 9 9 12 12 7
3 -5 24 -10 46 -12 22 -1 44 -6 48 -10 11 -11 47 -2 47 11 0 5 5 6 10 3 6 -3
20 -3 31 0 17 6 19 9 8 16 -10 6 -2 9 22 9 23 0 41 -6 50 -17z m675 -22 l40
-38 -33 -12 c-18 -7 -38 -22 -44 -34 -7 -11 -23 -32 -36 -46 -14 -14 -36 -43
-50 -63 -28 -41 -38 -46 -47 -23 -15 40 73 165 116 165 11 0 11 -2 -1 -9 -8
-5 -9 -11 -3 -15 6 -3 14 -1 19 6 7 13 8 17 11 47 2 11 6 10 17 -5 11 -15 14
-16 15 -3 0 22 -20 39 -47 39 -16 0 -21 4 -17 15 9 22 16 19 60 -24z m-76 9
c0 -5 -8 -10 -17 -10 -15 0 -16 2 -3 10 19 12 20 12 20 0z m-470 -10 c0 -5 -5
-10 -11 -10 -5 0 -7 5 -4 10 3 6 8 10 11 10 2 0 4 -4 4 -10z m43 -2 c4 -10 8
-9 16 2 5 8 13 11 17 8 9 -10 -21 -38 -40 -38 -9 0 -16 8 -16 20 0 22 15 27
23 8z m1052 -45 c-18 -17 -18 -17 -6 0 11 14 11 20 0 35 -12 16 -12 16 6 0 19
-18 19 -18 0 -35z m-1271 21 c24 -23 20 -31 -21 -44 -51 -17 -63 -29 -35 -36
12 -4 22 -12 22 -18 0 -17 -21 -36 -39 -36 -11 0 -11 3 4 13 10 8 15 19 11 25
-10 17 -26 15 -26 -4 0 -8 -4 -12 -10 -9 -20 12 -3 49 27 59 29 11 29 12 12
30 -19 19 -44 13 -35 -10 3 -8 2 -13 -2 -13 -23 4 -30 -5 -30 -36 0 -19 3 -35
7 -35 4 0 8 -6 8 -14 0 -8 -6 -12 -14 -9 -9 3 -13 17 -11 33 1 15 -4 35 -11
44 -8 9 -11 19 -7 23 3 3 6 1 6 -6 0 -7 5 -9 10 -6 6 3 10 14 10 24 0 13 12
21 43 28 60 15 64 15 81 -3z m1346 7 c0 -6 -4 -13 -10 -16 -5 -3 -10 1 -10 9
0 9 5 16 10 16 6 0 10 -4 10 -9z m-1488 -23 c-7 -7 -12 -8 -12 -2 0 14 12 26
19 19 2 -3 -1 -11 -7 -17z m1365 5 c-4 -3 -1 -13 6 -22 11 -14 10 -14 -5 -2
-16 12 -16 31 -1 31 4 0 3 -3 0 -7z m-1014 -31 c16 3 23 0 23 -11 1 -9 5 -25
9 -35 6 -14 5 -17 -3 -12 -8 4 -10 2 -6 -7 3 -8 -2 -17 -10 -20 -18 -7 -20 6
-6 33 12 22 -1 34 -29 25 -24 -7 -46 -54 -31 -69 5 -5 10 -17 10 -25 0 -10 -7
-5 -18 12 -17 27 -32 35 -32 17 0 -5 4 -10 9 -10 5 0 11 -14 15 -31 3 -17 10
-28 16 -24 24 15 7 -26 -21 -49 -35 -30 -39 -31 -64 -12 -18 13 -18 14 6 26
13 7 27 18 31 24 6 8 8 7 8 -1 0 -6 -9 -18 -21 -26 -13 -9 -16 -17 -10 -21 18
-12 54 30 46 53 -3 12 -10 19 -15 16 -5 -3 -10 7 -12 22 l-3 28 -18 -32 c-22
-42 -34 -42 -42 1 -11 54 -4 71 26 68 14 -2 31 4 38 12 10 12 8 17 -9 26 -11
6 -18 16 -14 22 4 7 9 6 15 -3 5 -8 9 -10 9 -5 0 14 30 -15 30 -29 0 -8 -13
-19 -29 -26 -16 -7 -27 -17 -24 -23 3 -5 1 -6 -5 -2 -6 3 -16 -2 -21 -13 -20
-37 10 -28 53 16 65 67 72 76 58 81 -7 2 -12 8 -12 14 0 6 6 6 15 -2 8 -7 25
-10 38 -8z m240 11 c-7 -2 -19 -2 -25 0 -7 3 -2 5 12 5 14 0 19 -2 13 -5z m44
-9 c-3 -3 -12 -4 -19 -1 -8 3 -5 6 6 6 11 1 17 -2 13 -5z m440 -81 c-3 -10 -5
-2 -5 17 0 19 2 27 5 18 2 -10 2 -26 0 -35z m264 17 c-8 -4 -14 -26 -15 -49
-1 -22 -5 -41 -9 -41 -14 0 -1 91 14 101 7 4 16 6 18 3 3 -3 -1 -9 -8 -14z
m93 5 c-4 -8 -11 -15 -16 -15 -6 0 -5 6 2 15 7 8 14 15 16 15 2 0 1 -7 -2 -15z
m-1021 -39 c-15 -33 -15 -37 2 -63 10 -15 12 -22 4 -16 -10 11 -18 8 -41 -14
-19 -18 -28 -22 -28 -12 0 8 12 22 28 31 15 10 22 18 15 18 -8 0 -9 9 -3 30 5
17 6 30 2 30 -5 0 29 29 35 30 2 0 -5 -15 -14 -34z m223 5 c0 -11 -4 -17 -8
-15 -4 3 -8 12 -8 20 0 8 4 14 8 14 4 0 8 -9 8 -19z m514 9 c0 -5 -2 -10 -4
-10 -3 0 -8 5 -11 10 -3 6 -1 10 4 10 6 0 11 -4 11 -10z m270 -6 c0 -8 -19
-13 -24 -6 -3 5 1 9 9 9 8 0 15 -2 15 -3z m-1063 -54 c1 -16 -1 -30 -5 -30 -5
0 -9 16 -9 35 0 41 9 38 14 -5z m754 13 c-12 -20 -14 -14 -5 12 4 9 9 14 11
11 3 -2 0 -13 -6 -23z m282 -2 c-3 -11 -12 -22 -20 -25 -14 -6 -11 5 10 32 13
17 16 15 10 -7z m-739 -6 c-10 -8 -23 -15 -28 -15 -6 0 -1 7 10 15 10 8 23 15
28 15 6 0 1 -7 -10 -15z m386 -46 c0 -6 -4 -7 -10 -4 -5 3 -10 11 -10 16 0 6
5 7 10 4 6 -3 10 -11 10 -16z m55 11 c-3 -5 -16 -10 -28 -9 -20 1 -20 2 3 9
14 4 26 8 28 9 2 1 0 -3 -3 -9z m65 -26 c0 -8 -8 -14 -17 -14 -14 0 -15 2 -4
9 8 5 10 14 6 21 -5 9 -4 11 3 6 7 -4 12 -14 12 -22z m150 21 c0 -2 -10 -9
-22 -15 -22 -11 -22 -10 -4 4 21 17 26 19 26 11z m-51 -19 c-12 -10 -60 -16
-54 -6 3 5 18 10 32 10 15 0 24 -2 22 -4z m92 -19 c-10 -9 -11 -8 -5 6 3 10 9
15 12 12 3 -3 0 -11 -7 -18z m-243 -4 c-10 -2 -26 -2 -35 0 -10 3 -2 5 17 5
19 0 27 -2 18 -5z m102 -15 c0 -6 -6 -5 -15 2 -8 7 -15 14 -15 16 0 2 7 1 15
-2 8 -4 15 -11 15 -16z m-44 -20 l19 -21 -26 16 c-14 10 -29 14 -32 10 -4 -3
-7 -1 -7 5 0 19 25 14 46 -10z m164 -6 c0 -5 -7 -17 -15 -28 -14 -18 -14 -17
-4 9 12 27 19 34 19 19z m-105 -34 c5 4 5 1 0 -7 -4 -8 -2 -16 5 -21 7 -4 8
-10 3 -13 -5 -3 -16 8 -26 25 -12 20 -13 27 -4 20 8 -7 18 -8 22 -4z m-51 -71
c14 1 15 -2 7 -10 -16 -16 -45 4 -49 34 l-3 24 14 -25 c7 -14 21 -24 31 -23z
m89 28 c-3 -9 -8 -14 -10 -11 -3 3 -2 9 2 15 9 16 15 13 8 -4z m-653 1 c0 -2
-8 -10 -17 -17 -16 -13 -17 -12 -4 4 13 16 21 21 21 13z m632 -41 c3 0 9 -3
13 -7 4 -3 0 -5 -9 -4 -9 1 -22 8 -29 16 -10 10 -9 11 3 4 8 -5 18 -9 22 -9z
m-502 -21 c0 -22 2 -24 15 -14 20 16 35 4 35 -28 0 -17 -8 -32 -22 -41 -19
-12 -23 -11 -37 8 -11 14 -15 35 -13 61 5 44 22 55 22 14z m-580 -262 c0 -43
-38 -92 -72 -92 -21 0 -81 57 -76 72 7 20 72 48 110 48 35 0 38 -2 38 -28z
m-830 -176 c0 -8 -61 -12 -66 -4 -3 4 11 8 30 8 20 0 36 -2 36 -4z m49 1 c-2
-1 -12 -9 -22 -16 -15 -12 -17 -12 -11 3 3 9 13 16 22 16 8 0 13 -1 11 -3z
m51 -7 c0 -13 -11 -13 -30 0 -12 8 -11 10 8 10 12 0 22 -4 22 -10z m-213 -7
c-4 -3 -2 -11 3 -18 7 -8 5 -12 -5 -12 -8 0 -15 9 -15 19 0 10 5 18 12 18 6 0
8 -3 5 -7z m-180 -9 c-3 -3 -12 -4 -19 -1 -8 3 -5 6 6 6 11 1 17 -2 13 -5z
m43 2 c0 -11 -19 -15 -25 -6 -3 5 1 10 9 10 9 0 16 -2 16 -4z m37 -2 c-3 -3
-12 -4 -19 -1 -8 3 -5 6 6 6 11 1 17 -2 13 -5z m-136 -13 c-12 -8 -51 -4 -51
5 0 2 15 4 33 4 22 0 28 -3 18 -9z m-318 -18 c-7 -2 -19 -2 -25 0 -7 3 -2 5
12 5 14 0 19 -2 13 -5z m787 -3 c0 -5 -5 -10 -11 -10 -5 0 -7 5 -4 10 3 6 8
10 11 10 2 0 4 -4 4 -10z m-952 -7 c-15 -2 -42 -2 -60 0 -18 2 -6 4 27 4 33 0
48 -2 33 -4z m105 0 c-13 -2 -35 -2 -50 0 -16 2 -5 4 22 4 28 0 40 -2 28 -4z
m-283 -17 c0 -2 -9 -6 -20 -9 -11 -3 -20 -1 -20 4 0 5 9 9 20 9 11 0 20 -2 20
-4z m1105 -73 c-10 -84 -11 -123 -3 -125 4 -2 9 -18 10 -37 3 -31 0 -35 -36
-47 -22 -8 -53 -25 -70 -38 -21 -15 -51 -25 -91 -29 -57 -6 -75 -9 -137 -22
-36 -8 -72 11 -63 33 12 30 15 55 9 79 -8 29 -20 30 -28 0 -7 -28 -55 -57 -94
-57 -29 0 -30 1 -27 43 1 24 6 53 9 64 10 32 -25 38 -80 14 -41 -19 -48 -19
-67 -6 -35 24 -83 19 -111 -12 -23 -24 -27 -26 -40 -13 -8 8 -18 27 -21 41 -6
25 -4 27 37 32 24 4 120 6 213 7 94 0 190 3 215 5 48 6 92 10 237 21 51 4 90
11 87 15 -9 15 4 10 22 -8 16 -17 17 -16 12 10 -3 15 -1 30 3 33 5 3 9 16 9
30 0 13 3 24 6 24 4 0 3 -26 -1 -57z m-1116 -28 c0 -5 -4 -3 -9 5 -5 8 -9 22
-9 30 0 16 17 -16 18 -35z m927 23 c-10 -6 -22 -6 -26 -2 -5 5 3 10 18 11 22
1 24 0 8 -9z m-203 -15 c-7 -2 -19 -2 -25 0 -7 3 -2 5 12 5 14 0 19 -2 13 -5z
m-120 -10 c-7 -2 -21 -2 -30 0 -10 3 -4 5 12 5 17 0 24 -2 18 -5z m-408 -13
c3 -6 -1 -7 -9 -4 -18 7 -21 14 -7 14 6 0 13 -4 16 -10z m-194 -9 c-8 -5 -11
-16 -8 -25 4 -9 2 -16 -3 -16 -6 0 -10 11 -10 25 0 17 5 25 18 25 14 0 14 -2
3 -9z m124 -1 c4 -6 -10 -9 -37 -9 l-43 2 35 7 c19 4 36 8 37 9 1 0 5 -3 8 -9z
m-2 -37 c-7 -2 -21 -2 -30 0 -10 3 -4 5 12 5 17 0 24 -2 18 -5z m-147 -47 c-6
-19 -12 -33 -14 -31 -7 6 9 65 17 65 5 0 3 -15 -3 -34z m161 -68 c-3 -8 -6 -5
-6 6 -1 11 2 17 5 13 3 -3 4 -12 1 -19z m-201 -28 c0 -10 -2 -17 -5 -15 -2 3
-11 -1 -19 -8 -11 -9 -11 -4 2 16 22 32 22 32 22 7z m194 -4 c0 -2 -8 -10 -17
-17 -16 -13 -17 -12 -4 4 13 16 21 21 21 13z m-216 -52 c3 -8 2 -12 -4 -9 -6
3 -10 10 -10 16 0 14 7 11 14 -7z m171 6 c-3 -5 -14 -10 -23 -9 -14 0 -13 2 3
9 27 11 27 11 20 0z m-195 -4 c0 -3 -4 -8 -10 -11 -5 -3 -10 -1 -10 4 0 6 5
11 10 11 6 0 10 -2 10 -4z m117 -12 c-3 -3 -12 -4 -19 -1 -8 3 -5 6 6 6 11 1
17 -2 13 -5z m-1119 -1266 c7 -7 12 -20 12 -30 0 -17 -15 -18 -226 -18 -136 0
-223 4 -219 9 5 9 25 14 155 40 70 14 264 13 278 -1z m-1502 -314 c20 -5 22
-14 27 -142 5 -133 21 -217 57 -294 22 -47 58 -38 184 46 146 98 190 129 194
139 2 4 8 7 13 7 21 0 99 68 128 111 22 34 39 48 62 53 67 13 73 3 39 -63 -12
-25 -49 -60 -107 -103 -93 -70 -286 -198 -297 -198 -4 0 -39 -22 -79 -48 -141
-94 -183 -96 -218 -15 -11 27 -27 62 -35 78 -41 81 -47 116 -42 264 5 125 8
146 24 158 20 15 21 15 50 7z m2551 -615 c23 -11 54 -34 68 -51 21 -25 25 -39
25 -98 0 -67 -1 -69 -27 -72 -18 -2 -57 11 -105 34 -70 34 -78 41 -84 73 -3
19 -10 35 -15 35 -15 0 19 57 47 79 33 26 37 26 91 0z m-2817 -105 c0 -23 -43
-60 -112 -97 -46 -24 -65 -41 -86 -79 -26 -46 -29 -48 -70 -48 -71 0 -157 -29
-225 -74 -21 -14 -31 -16 -39 -8 -7 7 -10 13 -7 14 2 2 24 17 49 34 25 16 65
38 90 48 25 10 63 26 85 34 22 9 46 24 53 34 43 58 99 98 197 140 51 22 65 22
65 2z m7571 -206 l53 -53 -40 -7 c-21 -4 -53 -7 -70 -7 -29 -1 -31 2 -43 51
-9 41 -9 53 1 60 27 16 49 7 99 -44z m955 -35 c-7 -7 -98 -5 -105 3 -2 2 22 4
54 4 32 0 55 -3 51 -7z m-7944 -27 c83 -22 124 -43 143 -72 14 -22 15 -28 4
-35 -8 -5 -21 -9 -29 -9 -8 0 -66 -5 -128 -11 -135 -12 -149 -7 -126 46 8 19
14 43 14 53 0 43 35 51 122 28z m1058 -21 c16 -20 -10 -85 -52 -130 -22 -24
-28 -41 -28 -75 0 -54 20 -84 110 -165 146 -132 412 -220 641 -213 l94 3 4 55
4 55 11 -50 12 -50 38 3 c23 2 65 19 102 41 55 33 73 39 147 44 46 4 117 18
158 31 90 31 85 31 -45 7 -55 -11 -125 -22 -153 -26 l-53 -6 0 40 c0 55 36
127 71 141 39 16 67 50 71 85 3 27 7 30 43 33 44 4 195 -15 214 -27 14 -9 0
-111 -25 -170 -8 -19 -13 -36 -11 -38 4 -3 60 19 155 63 29 13 55 24 58 24 5
0 120 57 275 137 78 40 142 66 194 78 120 28 268 21 317 -15 25 -19 42 -20
189 -19 100 0 164 -4 168 -10 4 -5 46 -11 95 -12 48 -1 127 -10 174 -19 48
-10 132 -25 187 -34 275 -45 429 -76 435 -86 4 -6 40 -15 81 -20 82 -11 158
-28 264 -59 39 -12 97 -25 130 -31 33 -5 85 -17 115 -25 30 -9 83 -18 118 -22
34 -3 62 -9 61 -12 0 -3 -36 -24 -81 -45 l-81 -39 -111 17 c-203 31 -385 67
-466 92 -24 8 -69 17 -100 20 -30 3 -89 16 -130 29 -41 12 -115 30 -165 39
-149 28 -407 89 -560 131 -110 31 -142 36 -201 33 l-58 -3 -50 -95 c-65 -122
-61 -117 -92 -123 l-27 -5 6 92 c3 50 8 98 12 107 4 12 -1 18 -17 23 -41 10
-122 6 -183 -9 -61 -16 -78 -24 -290 -132 -66 -34 -142 -71 -170 -84 -62 -26
-94 -42 -215 -105 -112 -59 -214 -79 -446 -90 l-142 -7 -13 -39 c-10 -31 -10
-44 -1 -59 7 -10 12 -32 12 -48 0 -16 7 -45 15 -64 8 -20 15 -64 15 -97 0 -50
-3 -60 -17 -60 -10 0 -35 -3 -55 -6 l-38 -7 0 164 c0 152 -1 165 -22 195 l-23
33 -110 1 c-99 0 -160 4 -160 9 0 2 -8 4 -19 6 -10 2 -40 13 -67 24 -26 12
-54 21 -61 21 -18 0 -201 94 -253 130 -22 15 -52 40 -68 55 -15 16 -29 26 -31
24 -2 -2 -25 -46 -52 -98 -26 -51 -54 -96 -62 -98 -20 -8 -36 13 -39 54 -2 41
5 57 53 120 23 30 34 55 34 78 0 73 30 176 67 233 50 77 68 87 93 57z m6835
-65 c309 -24 670 -108 993 -231 13 -5 20 -14 17 -19 -3 -6 -1 -10 4 -10 6 0
11 -8 12 -17 0 -16 1 -16 8 1 5 12 10 16 14 9 9 -15 -2 -45 -14 -37 -5 3 -9 0
-9 -5 0 -6 9 -11 19 -11 10 0 21 -7 25 -15 3 -8 1 -15 -5 -15 -6 0 -9 -7 -5
-15 3 -8 2 -15 -3 -15 -5 0 -7 -19 -6 -42 1 -24 1 -35 -2 -25 -5 19 -5 19 -27
11 -9 -3 -16 -10 -16 -16 0 -5 4 -7 9 -4 5 3 11 -5 13 -19 3 -15 1 -22 -5 -18
-7 4 -8 0 -4 -12 4 -9 2 -25 -5 -33 -8 -10 -9 -13 -2 -9 7 4 14 0 17 -8 4 -10
1 -12 -10 -8 -12 5 -14 1 -8 -16 8 -27 -19 -61 -29 -35 -10 26 -7 36 8 31 11
-4 13 0 7 21 -4 15 -6 37 -5 50 1 13 -4 22 -12 22 -8 0 -14 -4 -14 -10 0 -5 4
-10 9 -10 14 0 -18 -103 -34 -112 -8 -5 -11 -17 -7 -30 3 -13 1 -19 -6 -15
-11 8 -10 -32 2 -52 4 -6 0 -14 -8 -17 -9 -3 -16 -13 -16 -21 0 -9 6 -13 14
-10 8 3 17 0 20 -8 3 -9 -5 -16 -24 -20 -24 -5 -27 -9 -17 -20 8 -9 16 -10 24
-3 7 5 16 7 22 4 5 -4 12 2 14 11 3 12 5 10 6 -7 2 -42 -49 -33 -184 33 -184
90 -221 107 -234 107 -6 0 -23 7 -36 16 -14 9 -39 20 -57 24 -18 5 -64 20
-103 34 -38 14 -122 40 -185 57 -63 17 -146 39 -185 49 -38 11 -88 22 -110 25
-22 4 -74 13 -115 21 -249 46 -778 69 -1027 44 -65 -6 -161 -15 -213 -20 -111
-11 -240 -32 -400 -66 -216 -46 -544 -134 -625 -169 -16 -7 -41 -16 -55 -20
-14 -4 -38 -13 -55 -21 -57 -25 -140 -54 -122 -41 102 69 187 120 297 179 19
10 55 30 80 44 98 57 245 127 370 179 36 15 90 37 120 50 178 75 434 153 690
208 222 49 416 73 715 91 81 5 311 -2 470 -14z m-5761 -42 c18 -69 -1 -109
-56 -123 -35 -9 -36 6 -7 86 23 63 51 79 63 37z m-168 -52 c23 -24 22 -96 -3
-138 -31 -54 -92 -90 -154 -92 l-54 -1 -3 59 c-4 72 10 109 57 159 34 37 39
38 87 35 32 -3 59 -11 70 -22z m-3336 -1 c47 -9 111 -20 143 -26 89 -15 182
-23 280 -21 91 2 137 -13 137 -43 0 -28 -72 -33 -285 -17 -87 7 -232 9 -345 5
-177 -5 -197 -4 -213 11 -27 27 -22 68 11 88 36 21 160 23 272 3z m4929 -344
c12 -8 13 -12 1 -26 -11 -14 -10 -18 8 -31 27 -18 27 -27 5 -50 -13 -12 -19
-38 -21 -89 l-4 -73 -42 -5 c-22 -3 -50 -9 -62 -12 -31 -10 -53 45 -35 89 7
17 22 60 33 96 16 49 28 70 52 87 35 24 45 26 65 14z m3896 -46 c55 -9 138
-22 185 -30 139 -23 394 -81 453 -104 12 -5 67 -24 122 -41 55 -18 105 -36
110 -40 6 -4 28 -13 50 -20 38 -12 135 -54 235 -102 51 -25 275 -151 365 -206
100 -61 246 -174 242 -186 -31 -76 -61 -136 -69 -136 -5 0 -35 20 -66 44 -431
331 -982 551 -1597 637 -235 34 -697 38 -967 10 -450 -48 -811 -131 -1278
-294 -111 -39 -149 -54 -265 -101 -33 -14 -164 -74 -235 -109 -45 -22 -45 -22
-15 -24 43 -4 278 -33 355 -44 206 -30 315 -53 535 -116 66 -19 138 -39 160
-44 21 -6 53 -16 70 -23 16 -8 66 -27 111 -44 153 -59 338 -159 464 -251 210
-154 249 -180 344 -230 79 -41 99 -46 74 -20 -12 13 -46 63 -81 121 -10 15
-24 60 -33 100 -18 87 -8 172 32 255 26 57 102 139 150 163 16 8 40 22 54 31
42 28 183 59 266 59 86 0 202 -27 289 -66 98 -45 153 -87 288 -219 142 -139
267 -235 378 -291 173 -87 348 -122 562 -111 64 3 117 4 117 1 0 -11 -85 -141
-103 -156 -38 -35 -341 -16 -460 28 -145 54 -190 73 -253 110 -40 23 -80 49
-90 58 -11 9 -57 46 -104 82 -47 37 -94 75 -105 85 -11 10 -29 26 -40 36 -34
31 -187 128 -250 160 -135 68 -305 71 -405 7 -96 -61 -130 -147 -100 -254 18
-67 143 -177 255 -225 128 -55 269 -106 360 -131 28 -7 100 -26 160 -42 61
-16 168 -40 239 -52 208 -37 453 -20 670 47 43 13 80 22 82 20 2 -1 -23 -42
-54 -89 l-57 -86 -80 -21 c-220 -56 -411 -74 -715 -68 -236 5 -364 21 -505 62
-128 37 -155 45 -220 68 -82 29 -300 124 -365 159 -25 14 -75 41 -111 61 -37
20 -88 50 -115 66 -27 17 -59 35 -71 41 -13 5 -53 29 -90 53 -237 155 -552
290 -896 386 -146 40 -342 70 -575 88 -222 16 -246 16 -475 0 -340 -25 -584
-69 -942 -172 -246 -71 -724 -242 -823 -295 -20 -11 -41 -20 -46 -20 -5 0 -30
-10 -55 -21 -25 -12 -71 -33 -101 -47 -30 -13 -122 -57 -205 -97 -144 -70
-258 -124 -410 -195 -145 -67 -343 -147 -435 -175 -25 -8 -67 -21 -95 -30
-146 -47 -179 -56 -280 -79 -348 -78 -591 -96 -965 -72 -222 15 -313 26 -540
63 -52 8 -120 19 -150 24 -128 21 -354 81 -545 145 -209 69 -253 86 -360 134
-11 5 -56 25 -99 44 l-80 34 -78 123 c-42 68 -76 125 -74 126 3 3 233 -93 356
-149 25 -11 63 -26 85 -33 22 -7 72 -25 110 -40 94 -35 120 -43 480 -145 160
-46 411 -93 630 -119 433 -51 859 -27 1215 66 30 8 78 20 105 28 28 7 68 19
90 28 22 8 83 29 135 45 113 37 344 128 455 182 44 21 103 48 130 61 28 12
131 61 230 109 99 48 210 101 248 119 37 17 95 44 130 60 118 55 175 78 362
145 288 104 469 150 945 241 270 52 472 122 719 249 137 70 257 130 321 158
108 49 196 86 255 108 33 13 74 29 90 35 91 38 349 119 545 170 235 62 601
126 830 145 166 14 771 4 885 -15z m-8545 -90 c332 -60 626 -165 885 -315 22
-12 67 -37 100 -55 33 -18 124 -69 203 -113 289 -163 620 -317 827 -387 384
-128 702 -175 1223 -178 116 -1 212 -3 212 -4 0 -2 -83 -43 -185 -93 l-184
-90 -83 0 c-104 0 -506 43 -653 69 -279 49 -809 209 -1100 330 -11 5 -56 22
-100 38 -44 17 -89 34 -100 38 -11 4 -41 16 -67 27 -27 10 -69 26 -95 36 -27
11 -55 22 -63 25 -36 14 -260 90 -315 107 -33 9 -98 29 -145 44 -425 132 -821
177 -1175 132 -136 -17 -298 -52 -380 -80 -34 -12 -41 -12 -48 0 -10 18 -87
224 -87 234 0 7 140 73 180 85 14 4 43 15 65 25 122 53 422 127 590 144 92 9
403 -3 495 -19z m9960 -86 c0 -30 14 -39 23 -15 3 8 1 17 -6 20 -9 3 -9 5 0 5
20 2 21 -12 2 -69 -15 -44 -18 -47 -14 -18 5 35 -7 59 -20 38 -3 -5 -1 -10 5
-10 6 0 8 -5 4 -11 -5 -8 -9 -7 -15 3 -9 16 -7 37 5 57 6 9 5 12 -1 8 -6 -4
-13 -1 -16 6 -3 8 3 14 14 14 15 1 19 -5 19 -28z m80 -3 c0 -8 -7 -16 -15 -20
-13 -4 -14 -2 -5 14 13 23 20 26 20 6z m-7990 -244 c30 -6 82 -13 116 -16 73
-6 101 -12 179 -38 67 -22 73 -24 166 -37 37 -5 76 -14 87 -20 12 -6 35 -11
52 -11 17 0 49 -9 71 -21 22 -11 55 -22 72 -24 43 -6 238 -34 257 -38 8 -1 20
-6 26 -9 11 -7 144 -37 304 -69 52 -10 120 -25 150 -34 30 -8 65 -15 78 -15
12 0 25 -6 28 -14 3 -8 26 -17 51 -21 24 -3 55 -9 66 -12 12 -3 51 -11 87 -18
151 -30 263 -54 267 -58 11 -12 -199 -68 -312 -84 -188 -26 -863 -26 -1075 0
-222 28 -335 51 -575 117 -93 26 -346 118 -359 131 -6 5 -16 9 -24 9 -7 0 -39
12 -70 26 -31 14 -73 33 -92 41 -42 19 -220 103 -308 146 -35 17 -65 34 -68
38 -2 4 13 10 33 14 21 3 49 13 63 20 21 12 83 14 350 11 179 -1 350 -8 380
-14z m-2245 -132 c233 -36 531 -114 850 -222 50 -17 110 -37 135 -46 46 -15
158 -56 195 -71 11 -5 58 -23 105 -40 47 -18 94 -36 105 -42 11 -5 34 -13 50
-19 17 -5 75 -27 129 -49 55 -23 104 -41 109 -41 5 0 23 -6 40 -14 32 -14 93
-35 177 -61 25 -8 68 -21 95 -30 211 -68 276 -85 495 -128 128 -26 270 -47
385 -57 61 -5 141 -13 178 -16 l68 -7 -63 -30 c-35 -16 -76 -36 -93 -44 -16
-8 -64 -28 -105 -45 -41 -16 -86 -35 -100 -41 -286 -121 -634 -213 -913 -241
-140 -14 -152 -14 -235 4 -122 27 -237 68 -337 122 -27 15 -63 34 -80 41 -16
8 -88 53 -159 101 -126 85 -140 96 -175 126 -22 19 -103 81 -131 100 -13 8
-32 23 -44 32 -11 10 -41 34 -66 54 -181 148 -492 307 -705 361 -33 8 -67 22
-75 31 -14 14 -13 15 3 3 15 -12 17 -11 17 5 1 18 1 18 15 0 14 -18 15 -16 17
30 0 27 0 56 -1 64 -5 38 -1 84 9 94 5 5 10 15 10 21 0 5 -5 3 -10 -5 -8 -12
-10 -11 -10 7 0 12 6 24 13 26 7 4 6 6 -4 6 -20 1 -41 -45 -35 -76 3 -13 1
-23 -5 -23 -5 0 -9 6 -10 13 0 10 -2 10 -6 0 -7 -18 -20 -16 -20 2 0 8 3 15 7
15 3 0 4 16 2 35 -2 20 0 35 6 35 6 0 8 -10 4 -22 -5 -21 -4 -22 12 -9 9 8 15
20 12 26 -2 7 1 18 7 24 9 9 8 11 -4 6 -10 -4 -20 -2 -24 4 -9 15 11 14 160
-9z m-134 -173 c-10 -9 -11 -8 -5 6 3 10 9 15 12 12 3 -3 0 -11 -7 -18z m-280
-132 c362 -40 674 -169 999 -414 47 -35 92 -70 100 -78 13 -11 83 -67 168
-131 12 -9 28 -22 35 -28 25 -22 142 -101 221 -149 71 -44 161 -90 286 -148
l35 -16 -35 0 c-36 0 -153 10 -340 29 -58 6 -167 22 -244 35 l-138 23 -92 95
c-77 79 -181 174 -234 212 -8 6 -24 19 -37 30 -12 11 -29 25 -37 30 -9 6 -46
31 -84 56 -179 120 -351 194 -574 246 -84 20 -140 26 -280 29 l-175 4 -37 80
c-20 44 -36 80 -35 81 1 0 49 7 107 14 147 17 230 17 391 0z m6544 -135 c346
-20 777 -121 1031 -241 22 -10 44 -19 48 -19 13 0 222 -107 326 -166 56 -33
118 -68 138 -80 56 -31 114 -65 147 -85 277 -166 590 -297 847 -355 97 -22
107 -27 91 -53 -6 -10 -9 -22 -6 -25 14 -13 9 -43 -6 -42 -29 2 -23 -31 9 -44
17 -7 28 -15 26 -18 -3 -2 -13 -1 -23 4 -49 21 -65 5 -58 -58 3 -17 2 -28 -1
-25 -9 9 -34 -19 -34 -37 0 -9 -4 -16 -10 -16 -5 0 -13 0 -17 0 -5 0 -8 6 -8
13 0 6 -9 12 -20 12 -11 0 -19 5 -17 10 2 6 12 9 22 7 11 -2 21 0 21 5 1 4 3
19 4 32 1 13 7 26 13 30 7 4 5 11 -7 18 -15 9 -21 7 -35 -9 -10 -11 -14 -23
-11 -26 4 -4 13 2 22 13 14 19 14 18 9 -13 -2 -19 -8 -37 -12 -40 -4 -4 -4 1
-1 11 12 33 -27 18 -44 -18 -9 -19 -11 -33 -6 -32 6 1 12 -7 14 -18 3 -16 2
-17 -6 -5 -9 13 -14 12 -33 -8 -15 -15 -18 -22 -8 -20 8 2 18 10 22 18 5 11 7
9 7 -7 1 -18 -5 -23 -24 -23 -20 0 -25 -5 -25 -26 0 -14 -4 -23 -9 -20 -5 3
-12 -1 -15 -10 -4 -10 -2 -13 7 -8 6 4 4 -2 -5 -13 -10 -11 -18 -27 -18 -36 0
-10 -8 -17 -17 -17 -14 0 -15 2 -5 9 11 6 10 10 -4 15 -11 4 -20 2 -22 -3 -2
-6 -8 -11 -13 -11 -6 0 -7 5 -3 12 4 7 3 8 -5 4 -12 -8 -110 21 -188 55 -24
11 -48 19 -54 19 -6 0 -28 9 -48 19 -20 10 -63 32 -96 48 -33 17 -76 39 -95
50 -104 60 -167 99 -232 143 -40 28 -98 67 -128 86 -30 20 -66 44 -80 54 -14
9 -32 20 -40 23 -8 4 -51 30 -95 56 -227 140 -545 274 -805 341 -47 12 -107
28 -135 35 -27 8 -68 17 -90 20 -22 4 -71 13 -110 20 -127 25 -407 47 -590 47
-174 0 -427 -21 -523 -43 -26 -6 -72 -15 -102 -20 -30 -5 -77 -15 -105 -23
-268 -76 -359 -105 -415 -129 -19 -8 -96 -39 -170 -67 -74 -29 -139 -56 -145
-60 -5 -4 -21 -11 -35 -15 -14 -4 -63 -26 -110 -47 -47 -22 -110 -52 -140 -66
-30 -14 -129 -61 -220 -105 -207 -99 -324 -155 -420 -199 -70 -33 -354 -147
-465 -187 -269 -97 -656 -183 -891 -197 l-110 -7 -22 28 c-15 19 -20 35 -15
53 4 17 2 23 -6 18 -6 -4 -11 -15 -11 -24 -1 -13 -7 -9 -25 13 -22 26 -25 28
-26 10 0 -11 -3 -14 -6 -7 -2 6 -9 10 -14 6 -5 -3 -9 4 -9 14 0 16 5 19 22 14
13 -3 19 -1 15 6 -8 11 -25 11 -44 -1 -13 -8 -20 0 -18 23 0 8 7 14 14 12 7
-1 10 2 7 7 -12 19 5 38 30 33 13 -2 24 -9 24 -14 0 -5 -4 -7 -9 -4 -5 3 -15
-2 -22 -12 -13 -15 -12 -16 3 -4 14 11 17 9 23 -17 4 -21 11 -28 21 -24 13 5
13 8 -1 23 -8 9 -13 24 -10 32 3 8 -1 21 -10 28 -8 7 -15 9 -15 6 0 -4 -6 -1
-14 6 -9 9 -10 15 -3 20 8 4 7 11 -1 21 -7 7 -9 17 -5 20 3 4 1 7 -6 7 -6 0
-14 -7 -17 -15 -4 -8 -15 -15 -26 -15 -15 0 -19 5 -15 20 3 10 0 21 -7 24 -6
2 -3 5 8 5 13 1 17 -4 13 -18 -3 -13 0 -18 8 -15 20 8 5 44 -18 44 -11 0 -18
2 -15 5 2 3 45 7 94 10 247 15 493 52 689 105 161 44 291 83 310 93 11 5 33
14 50 18 34 8 315 123 355 144 14 8 61 30 105 51 44 20 145 68 225 106 238
114 321 154 390 182 36 15 79 34 95 42 27 13 115 49 260 106 215 86 584 204
800 257 440 108 801 145 1190 121z m-20 -494 c175 -27 277 -47 370 -72 102
-27 258 -76 292 -90 17 -8 35 -14 40 -14 11 0 114 -41 183 -72 115 -52 367
-184 391 -204 8 -8 19 -14 23 -14 4 0 80 -48 169 -107 89 -58 192 -126 229
-150 64 -42 264 -146 359 -187 105 -46 214 -81 374 -122 126 -32 462 -55 635
-44 63 4 116 7 117 6 1 -1 -29 -33 -68 -72 l-70 -69 -177 1 c-274 1 -545 41
-745 110 -55 19 -105 34 -114 34 -27 0 -280 121 -329 157 -17 13 -34 23 -37
23 -4 0 -43 25 -88 55 -45 30 -83 55 -86 55 -2 0 -19 11 -37 25 -18 14 -38 25
-43 25 -6 0 -16 6 -22 14 -36 43 -449 255 -626 321 -33 12 -92 34 -132 49
-138 51 -320 93 -573 133 -146 22 -197 25 -445 26 -242 1 -301 -2 -435 -21
-244 -36 -451 -84 -652 -153 -118 -40 -331 -120 -366 -138 -30 -15 -95 -43
-202 -86 -179 -73 -297 -123 -316 -134 -11 -5 -48 -22 -84 -36 -36 -15 -72
-31 -82 -35 -9 -5 -81 -34 -160 -65 -78 -31 -156 -62 -173 -69 -16 -8 -41 -17
-55 -21 -14 -4 -38 -13 -55 -20 -33 -14 -106 -39 -175 -60 -25 -8 -63 -21 -85
-29 -22 -8 -49 -15 -60 -16 -11 0 -58 -12 -105 -26 -178 -53 -374 -100 -525
-125 -33 -5 -98 -16 -145 -24 -128 -23 -423 -45 -585 -45 -254 0 -538 33 -790
92 -139 32 -335 91 -408 122 -27 11 -220 216 -212 224 2 2 23 -5 47 -16 179
-85 483 -181 643 -202 39 -5 151 -21 250 -36 146 -21 231 -27 455 -31 282 -5
357 0 650 43 58 8 139 19 180 24 95 11 295 62 470 120 132 44 536 210 607 249
10 6 45 22 78 37 33 15 123 57 200 94 209 101 522 245 630 290 11 4 47 19 80
33 64 27 205 77 350 125 122 41 337 96 410 106 22 3 85 12 140 21 148 22 167
23 460 19 226 -2 296 -7 430 -28z m-183 -256 c251 -16 431 -50 728 -136 61
-17 261 -89 285 -102 11 -6 90 -44 175 -86 85 -42 171 -86 192 -99 20 -12 62
-37 95 -56 32 -19 117 -72 188 -119 137 -89 185 -119 224 -141 14 -7 45 -25
70 -39 24 -13 56 -28 70 -33 18 -5 20 -8 8 -8 -10 -1 -15 -5 -12 -11 3 -5 -2
-10 -12 -10 -10 0 -14 -4 -8 -8 17 -12 16 -32 -1 -32 -14 0 -14 -2 1 -16 13
-14 14 -19 3 -25 -10 -7 -10 -9 2 -9 11 0 10 -3 -4 -11 -15 -9 -16 -13 -5 -20
10 -6 10 -9 2 -9 -7 0 -16 7 -21 16 -8 15 -11 15 -31 -5 -11 -11 -16 -21 -11
-21 6 0 10 -5 10 -11 0 -6 -7 -9 -15 -5 -8 3 -15 1 -15 -4 0 -6 -6 -10 -12
-10 -7 0 -18 -12 -25 -26 -11 -23 -10 -27 7 -31 22 -6 27 -23 8 -23 -10 0 -10
-2 0 -9 11 -6 10 -10 -4 -15 -10 -4 -21 -1 -25 6 -5 7 -4 15 1 16 6 2 10 8 10
13 0 16 -15 10 -28 -12 -11 -18 -10 -23 8 -39 17 -15 18 -19 5 -24 -9 -3 -15
0 -15 8 0 9 -7 12 -21 9 -12 -3 -18 -11 -15 -19 3 -8 0 -13 -6 -11 -6 1 -13
-4 -15 -11 -3 -8 1 -10 14 -6 16 6 16 5 -2 -9 -10 -8 -26 -13 -35 -10 -8 2 -4
-2 9 -10 17 -10 20 -16 10 -19 -7 -2 -40 10 -72 29 -32 18 -63 33 -68 33 -5 0
-9 4 -9 8 0 4 -19 18 -42 30 -58 31 -83 46 -99 59 -17 13 -96 58 -244 138
-132 72 -202 105 -271 129 -38 13 -94 33 -124 45 -76 31 -347 120 -395 131
-22 5 -67 15 -100 23 -355 85 -818 110 -1246 66 -112 -11 -222 -24 -244 -29
-22 -5 -71 -14 -110 -19 -80 -13 -164 -32 -320 -73 -171 -46 -210 -57 -358
-104 -76 -24 -146 -44 -155 -44 -10 0 -48 -12 -87 -26 -38 -14 -101 -36 -140
-51 -117 -42 -557 -192 -610 -208 -136 -40 -199 -58 -305 -84 -247 -62 -292
-72 -325 -65 -19 3 -35 1 -39 -5 -4 -6 -14 -11 -22 -11 -8 0 -12 4 -9 10 3 6
-1 7 -9 4 -9 -3 -14 -9 -11 -13 5 -9 -185 -34 -193 -26 -3 3 6 5 20 5 13 0 28
3 32 7 8 8 34 14 61 14 18 0 18 2 -5 21 l-25 21 25 -8 c14 -4 30 -12 37 -17 7
-6 14 -5 18 2 4 6 1 9 -6 8 -7 -2 -15 5 -17 16 -3 13 0 16 10 11 7 -3 5 0 -4
8 -21 16 -24 38 -5 33 6 -1 9 -1 4 1 -4 3 -4 10 -1 15 4 7 2 8 -4 4 -7 -4 -12
0 -12 10 0 10 -3 14 -7 11 -3 -4 -12 1 -20 11 -13 15 -13 15 -7 -8 4 -14 10
-27 14 -30 13 -8 6 -53 -9 -58 -9 -3 -11 0 -6 8 6 9 3 9 -15 0 -15 -8 -20 -8
-16 -1 4 6 2 11 -3 11 -6 0 -11 5 -11 11 0 6 9 8 21 4 18 -6 20 -3 17 27 -3
32 -18 42 -27 17 -2 -7 1 -9 8 -5 18 11 13 -6 -6 -20 -42 -32 -45 -5 -4 38 22
24 26 34 18 43 -7 7 -18 10 -24 8 -7 -3 -13 0 -13 6 0 6 5 11 11 11 5 0 7 5 3
12 -5 8 2 9 25 5 19 -4 30 -3 26 3 -3 5 16 12 42 15 27 4 80 15 118 25 39 10
108 28 155 40 140 36 293 81 320 95 14 6 59 20 100 30 87 20 101 25 195 60 39
14 106 39 150 55 44 16 112 43 150 60 39 17 79 35 90 39 86 36 311 130 370
156 17 7 59 25 95 40 36 14 83 35 105 46 22 10 44 19 48 19 5 0 23 6 40 14
272 122 430 176 772 264 262 68 620 95 967 72z m2991 -237 c-7 -2 -19 -2 -25
0 -7 3 -2 5 12 5 14 0 19 -2 13 -5z m-124 -44 c-16 -10 -23 -4 -14 10 3 6 11
8 17 5 6 -4 5 -9 -3 -15z m-54 -145 c-8 -9 -13 -19 -10 -24 3 -5 1 -11 -5 -15
-6 -4 -10 6 -10 22 0 22 5 29 20 30 18 2 19 0 5 -13z m-7193 -68 c7 4 8 2 4
-4 -11 -18 -26 -14 -25 6 0 10 3 12 6 4 2 -6 10 -9 15 -6z m2 -45 c3 -5 -1
-11 -9 -14 -9 -4 -12 -1 -8 9 6 16 10 17 17 5z m6 -31 c0 -5 -5 -10 -11 -10
-5 0 -7 5 -4 10 3 6 8 10 11 10 2 0 4 -4 4 -10z m46 -22 c1 -20 -4 -28 -15
-28 -12 0 -13 2 -3 9 11 7 11 11 -2 24 -20 20 -20 23 2 23 12 0 17 -9 18 -28z
m4354 -21 c47 -8 110 -18 140 -22 111 -14 330 -70 540 -137 69 -22 141 -44
160 -50 57 -17 349 -157 450 -216 149 -85 342 -200 390 -231 186 -121 505
-254 695 -291 94 -19 95 -21 9 -81 -43 -30 -83 -57 -89 -61 -25 -16 -296 81
-482 173 -67 33 -162 85 -210 115 -48 30 -95 57 -103 61 -8 4 -44 25 -80 48
-36 23 -72 44 -80 48 -8 4 -37 20 -65 36 -85 49 -336 172 -425 208 -107 43
-326 115 -450 147 -158 41 -239 52 -660 88 -292 24 -899 -20 -1200 -88 -369
-83 -612 -146 -810 -208 -41 -13 -109 -34 -150 -46 -41 -12 -100 -30 -130 -40
-30 -10 -89 -28 -130 -40 -139 -41 -205 -61 -280 -84 -197 -62 -468 -127 -675
-162 -148 -26 -181 -28 -435 -28 -245 -1 -288 2 -390 22 -63 12 -121 22 -130
22 -42 -2 176 -93 370 -155 383 -123 647 -169 975 -168 245 0 589 38 835 93
103 23 220 47 319 66 41 7 88 18 105 23 17 5 51 13 76 16 25 4 70 13 100 20
74 19 196 43 300 60 47 7 123 20 170 29 90 16 232 29 498 47 162 10 307 5 582
-21 224 -21 676 -128 827 -196 17 -8 34 -14 38 -14 4 0 39 -14 78 -31 274
-118 473 -224 695 -369 136 -89 152 -100 152 -108 0 -4 -37 -24 -81 -44 l-81
-37 -116 78 c-101 67 -325 201 -338 201 -2 0 -46 21 -96 46 -51 25 -122 57
-158 71 -36 13 -78 31 -95 38 -16 7 -68 25 -115 40 -47 15 -95 31 -107 35 -97
38 -370 95 -603 126 -173 23 -229 26 -500 26 -251 1 -338 -3 -490 -21 -411
-49 -748 -138 -1050 -278 -41 -19 -93 -43 -115 -53 -199 -91 -271 -126 -485
-237 -74 -39 -146 -74 -160 -78 -14 -4 -36 -15 -50 -25 -26 -17 -218 -103
-257 -115 -14 -4 -60 9 -130 36 -107 42 -108 43 -73 51 19 5 62 20 95 32 131
51 199 78 214 86 9 5 43 20 76 35 33 14 67 29 75 34 8 4 31 16 50 26 19 10 42
22 50 26 8 5 47 25 85 45 84 43 218 114 260 138 l30 17 -60 -6 c-33 -4 -109
-14 -170 -23 -170 -25 -489 -22 -684 7 -242 36 -486 92 -741 170 -64 20 -276
95 -315 111 -11 5 -54 23 -95 40 -41 17 -88 37 -105 45 -16 8 -118 57 -226
108 l-196 94 -134 120 c-74 66 -143 130 -153 142 l-19 21 49 -21 c27 -12 68
-30 91 -40 23 -11 44 -19 48 -19 3 0 24 -8 48 -18 292 -128 704 -223 1051
-241 289 -16 688 18 866 73 25 8 79 22 120 31 152 35 472 132 580 175 25 10
61 23 80 28 19 6 94 31 165 57 72 25 150 53 175 60 25 7 83 28 130 45 83 30
130 44 335 97 55 14 118 31 140 38 39 13 171 43 370 84 108 23 356 58 445 65
30 2 213 2 405 1 263 -2 371 -6 435 -18z m2606 -19 c4 -7 3 -8 -4 -4 -7 4 -12
3 -12 -3 0 -5 6 -12 13 -14 7 -3 4 -6 -6 -6 -10 -1 -25 -7 -33 -15 -12 -13
-12 -16 3 -26 17 -11 17 -11 0 -6 -10 3 -23 6 -28 6 -5 0 -9 7 -9 15 0 8 7 15
16 15 8 0 13 4 9 9 -3 5 5 17 17 25 27 19 25 19 34 4z m39 -8 c3 -5 2 -10 -4
-10 -5 0 -13 5 -16 10 -3 6 -2 10 4 10 5 0 13 -4 16 -10z m-22 -77 c-7 -2 -19
-2 -25 0 -7 3 -2 5 12 5 14 0 19 -2 13 -5z m-566 -128 c0 -8 -4 -12 -9 -9 -5
3 -6 10 -3 15 9 13 12 11 12 -6z m-37 -36 c-12 -22 -22 -19 -26 6 -1 9 6 15
17 15 17 0 18 -3 9 -21z m77 -15 c-3 -3 -12 -4 -19 -1 -8 3 -5 6 6 6 11 1 17
-2 13 -5z m-170 -120 c-3 -3 -12 -4 -19 -1 -8 3 -5 6 6 6 11 1 17 -2 13 -5z
m9 -85 c3 -6 1 -16 -5 -22 -9 -9 -11 -8 -6 5 4 11 0 18 -12 21 -15 4 -16 5 -1
6 9 0 20 -4 24 -10z m-67 -89 c-6 -5 -18 -6 -26 -3 -19 8 -16 11 13 11 17 0
22 -3 13 -8z m-2315 -435 c201 -15 372 -41 571 -87 147 -33 331 -90 445 -138
41 -17 99 -40 127 -51 29 -11 55 -25 58 -30 4 -5 14 -9 23 -9 9 0 31 -12 47
-26 17 -14 25 -23 19 -20 -7 3 -12 0 -11 -7 1 -31 -4 -48 -13 -42 -5 3 -7 13
-4 23 3 9 -4 -1 -15 -22 -12 -22 -26 -43 -31 -46 -6 -4 -12 -20 -13 -36 -1
-16 -9 -34 -17 -41 -13 -11 -13 -12 3 -13 15 0 16 -2 5 -14 -8 -8 -15 -10 -19
-4 -3 5 -9 2 -13 -7 -11 -29 -7 -38 12 -24 15 13 16 12 4 -3 -8 -10 -20 -14
-29 -11 -13 5 -15 2 -10 -16 4 -18 3 -20 -9 -10 -14 12 -19 3 -15 -29 1 -6 -9
-16 -22 -21 -20 -8 -23 -15 -19 -40 3 -24 0 -31 -12 -31 -9 0 -15 -3 -14 -7 3
-17 -15 -43 -30 -43 -13 0 -12 3 4 15 10 8 14 15 7 15 -6 0 -19 -8 -28 -17
-13 -12 -21 -14 -34 -6 -62 38 -195 93 -366 151 -302 103 -649 155 -1025 155
-574 0 -1105 -128 -1505 -364 -27 -16 -57 -32 -65 -36 -8 -3 -23 -13 -32 -21
-10 -8 -29 -16 -43 -18 -22 -2 -24 0 -14 12 10 12 14 12 21 2 7 -10 9 -10 5 2
-4 14 -8 16 -52 19 -17 1 -18 3 -5 11 8 5 11 10 5 11 -5 1 -14 2 -20 4 -5 1
-16 3 -22 3 -7 1 -13 7 -13 13 0 5 4 8 9 5 5 -3 11 1 14 8 4 9 0 14 -11 14
-32 -1 -72 21 -71 39 1 17 2 17 6 1 2 -10 12 -18 21 -18 11 0 7 9 -16 33 -18
18 -29 37 -25 42 5 4 2 5 -5 1 -8 -5 -16 2 -22 18 -5 14 -17 26 -25 26 -12 0
-13 4 -6 18 8 14 6 19 -5 19 -7 0 -14 -8 -14 -18 0 -9 -7 -20 -16 -23 -12 -5
-14 -1 -9 15 5 16 4 20 -6 14 -8 -4 -1 4 15 19 33 30 28 34 -12 9 l-27 -17 20
24 c11 13 15 20 8 17 -7 -4 -14 1 -18 13 -4 11 -11 18 -16 15 -5 -3 -6 1 -3 9
7 19 -7 21 -25 4 -11 -11 -12 -10 -7 0 5 7 27 23 51 35 641 323 821 389 1330
488 135 27 480 56 674 58 79 0 239 -6 355 -14z m1266 -460 c11 -13 8 -15 -20
-15 -28 0 -31 2 -20 15 7 8 16 15 20 15 4 0 13 -7 20 -15z m-1245 -126 c154
-19 319 -52 435 -85 114 -33 245 -77 255 -85 5 -5 15 -9 23 -9 8 0 72 -27 141
-61 91 -43 122 -63 111 -69 -8 -4 -60 -20 -114 -35 -105 -29 -131 -28 -201 4
-166 75 -367 127 -647 167 -151 22 -208 25 -453 26 -251 0 -298 -3 -455 -26
-97 -14 -214 -34 -260 -45 -131 -29 -349 -95 -450 -137 -36 -14 -78 -32 -95
-38 -16 -7 -56 -25 -88 -40 l-57 -28 -98 17 c-53 10 -103 21 -111 25 -31 17
361 217 544 278 165 54 419 117 520 127 33 4 87 11 120 17 184 32 618 31 880
-3z m1092 -115 c-3 -3 -12 -4 -19 -1 -8 3 -5 6 6 6 11 1 17 -2 13 -5z m-3427
-17 c-14 -8 -27 -12 -30 -10 -7 6 23 23 40 23 8 0 4 -6 -10 -13z"/>
<path d="M11532 14081 c-25 -44 -26 -51 -12 -51 11 0 120 79 120 86 0 2 -19 4
-43 4 -40 0 -45 -3 -65 -39z"/>
<path d="M7205 13996 c-49 -18 -107 -81 -123 -134 -15 -49 -15 -135 -1 -187
23 -83 112 -133 214 -121 79 9 133 61 138 130 2 35 -1 40 -25 47 -27 7 -28 6
-28 -36 0 -103 -109 -144 -154 -57 -34 67 -27 250 12 301 28 38 74 40 101 5
12 -15 21 -41 21 -60 0 -37 14 -43 46 -20 18 14 18 17 4 57 -8 23 -26 51 -40
61 -34 25 -115 32 -165 14z"/>
<path d="M9715 13996 c-49 -18 -107 -81 -123 -134 -15 -49 -15 -135 -1 -187
23 -83 112 -133 214 -121 79 9 133 61 138 130 2 35 -1 40 -25 47 -27 7 -28 6
-28 -36 0 -103 -109 -144 -154 -57 -34 67 -27 250 12 301 28 38 74 40 101 5
12 -15 21 -41 21 -60 0 -37 14 -43 46 -20 18 14 18 17 4 57 -8 23 -26 51 -40
61 -34 25 -115 32 -165 14z"/>
<path d="M11075 13995 c-76 -27 -115 -97 -115 -208 0 -166 81 -250 223 -233
102 12 156 77 165 197 6 89 -12 161 -52 203 -50 53 -139 70 -221 41z m122 -55
c8 -16 13 -71 13 -160 0 -151 -9 -183 -52 -188 -20 -2 -31 4 -44 23 -14 21
-17 51 -17 165 0 114 3 144 17 165 22 34 65 31 83 -5z"/>
<path d="M5960 13779 l0 -221 128 3 c117 4 132 6 165 29 56 38 79 93 79 191 0
105 -27 162 -91 196 -39 20 -58 23 -163 23 l-118 0 0 -221z m200 171 c55 -29
52 -305 -4 -342 -6 -4 -23 -8 -38 -8 l-28 0 0 180 0 180 26 0 c14 0 34 -4 44
-10z"/>
<path d="M6412 13788 c-35 -117 -62 -216 -62 -220 0 -5 11 -8 24 -8 19 0 26 8
36 45 l13 45 67 0 68 0 11 -45 11 -45 66 0 c57 0 65 2 60 18 -2 9 -28 100 -56
202 -28 102 -53 193 -56 203 -4 14 -17 17 -63 17 l-57 0 -62 -212z m128 -80
c0 -5 -22 -8 -50 -8 -27 0 -50 3 -50 6 0 7 38 140 47 164 4 12 52 -135 53
-162z"/>
<path d="M6750 13780 l0 -220 156 0 155 0 -3 23 c-3 21 -8 22 -90 25 l-88 3 0
194 0 195 -65 0 -65 0 0 -220z"/>
<path d="M7502 13788 c-35 -117 -62 -216 -62 -220 0 -5 11 -8 24 -8 19 0 26 8
36 45 l13 45 67 0 68 0 11 -45 11 -45 66 0 c57 0 65 2 60 18 -2 9 -28 100 -56
202 -28 102 -53 193 -56 203 -4 14 -17 17 -63 17 l-57 0 -62 -212z m128 -80
c0 -5 -22 -8 -50 -8 -27 0 -50 3 -50 6 0 7 38 140 47 164 4 12 52 -135 53
-162z"/>
<path d="M7840 13780 l0 -220 65 0 65 0 0 110 0 110 50 0 50 0 0 -110 0 -110
65 0 65 0 0 220 0 220 -65 0 -65 0 0 -90 0 -90 -50 0 -50 0 0 90 0 90 -65 0
-65 0 0 -220z"/>
<path d="M8272 13822 c2 -149 6 -182 21 -205 27 -42 73 -61 147 -62 73 0 113
16 144 58 19 26 21 44 24 208 l3 179 -25 0 -26 0 0 -175 c0 -173 0 -176 -25
-200 -29 -30 -74 -32 -106 -6 -23 19 -24 24 -27 200 l-4 181 -65 0 -65 0 4
-178z"/>
<path d="M8680 13780 l0 -220 155 0 155 0 0 25 c0 25 -1 25 -90 25 l-90 0 0
85 0 85 65 0 c58 0 65 2 65 20 0 18 -7 20 -65 20 l-65 0 0 65 0 65 75 0 c73 0
75 1 75 25 l0 25 -140 0 -140 0 0 -220z"/>
<path d="M10000 13780 l0 -220 65 0 65 0 0 110 0 110 50 0 50 0 0 -110 0 -110
65 0 65 0 0 220 0 220 -65 0 -65 0 0 -90 0 -90 -50 0 -50 0 0 90 0 90 -65 0
-65 0 0 -220z"/>
<path d="M10440 13780 l0 -220 65 0 65 0 0 220 0 220 -65 0 -65 0 0 -220z"/>
<path d="M10640 13780 l0 -220 156 0 155 0 -3 23 c-3 21 -8 22 -90 25 l-88 3
0 194 0 195 -65 0 -65 0 0 -220z"/>
<path d="M11410 13780 l0 -220 155 0 155 0 0 25 c0 25 -1 25 -90 25 l-90 0 0
85 0 85 65 0 c58 0 65 2 65 20 0 18 -7 20 -65 20 l-65 0 0 65 0 65 75 0 c73 0
75 1 75 25 l0 25 -140 0 -140 0 0 -220z"/>
<path d="M9192 13728 l3 -43 78 -3 77 -3 0 46 0 45 -81 0 -80 0 3 -42z"/>
<path d="M8915 13095 l-49 -165 -158 -2 -158 -3 115 -89 c64 -49 120 -95 126
-102 8 -10 -1 -55 -36 -170 -25 -86 -45 -157 -43 -159 3 -3 81 56 215 162 l40
32 127 -101 c70 -55 129 -99 130 -97 2 2 -16 67 -40 143 -23 76 -45 149 -48
161 -5 19 13 37 120 121 l127 99 -159 5 -158 5 -47 158 c-25 87 -49 160 -51
162 -3 3 -27 -69 -53 -160z"/>
<path d="M5118 13224 c-15 -8 -32 -23 -38 -34 -9 -18 -8 -18 19 -9 33 12 55
33 49 48 -2 5 -15 3 -30 -5z"/>
<path d="M9030 11567 c-30 -24 -70 -146 -70 -211 0 -40 11 -46 86 -46 l54 0 0
84 c0 150 -24 210 -70 173z"/>
<path d="M8783 11550 c-13 -5 -23 -18 -23 -29 0 -24 -29 -102 -43 -116 -6 -7
-8 13 -4 57 4 37 2 70 -3 73 -4 3 -19 1 -33 -4 -25 -10 -36 -36 -78 -179 -26
-91 -6 -133 56 -118 14 4 25 12 25 19 1 6 9 22 19 34 18 21 21 22 52 9 34 -14
77 -8 105 15 19 16 18 27 -4 34 -18 5 -18 8 4 53 13 26 26 62 30 81 6 28 3 37
-21 57 -30 25 -46 28 -82 14z"/>
<path d="M8041 11453 c-11 -72 -29 -159 -46 -225 -7 -27 -6 -28 29 -28 40 0
97 28 142 72 35 33 44 26 44 -38 l0 -34 90 0 c95 0 140 15 140 48 0 12 5 10
22 -7 l21 -23 19 23 c42 53 108 211 108 258 0 6 -19 11 -43 11 l-44 0 -14 -67
c-8 -38 -18 -68 -24 -68 -5 0 -13 29 -17 64 -4 35 -10 66 -13 70 -10 9 -44
-41 -57 -84 -18 -63 -28 -64 -28 -2 0 89 -33 137 -60 87 -14 -26 -30 -26 -30
1 0 17 -5 20 -36 17 -38 -3 -41 -6 -69 -73 -9 -22 -26 -58 -38 -80 -12 -22
-26 -50 -32 -62 -11 -24 -35 -39 -35 -22 0 6 10 24 21 41 14 19 23 51 26 92 6
73 -7 106 -41 106 -21 0 -24 -7 -35 -77z"/>
<path d="M9065 11240 c-11 -5 -53 -9 -93 -9 -48 -1 -74 -5 -77 -13 -2 -7 -11
-58 -19 -113 -8 -55 -18 -116 -22 -135 l-7 -35 71 60 c55 47 74 70 87 107 9
25 22 51 29 57 17 14 26 -33 26 -136 0 -40 4 -73 9 -73 23 0 61 44 67 78 4 20
25 75 48 122 22 47 42 88 44 93 5 10 -138 8 -163 -3z"/>
<path d="M8534 11198 c-12 -15 -32 -64 -88 -216 -9 -23 -16 -58 -16 -77 0 -32
3 -35 28 -35 15 0 41 9 59 19 31 19 31 19 49 0 9 -10 25 -19 35 -19 26 0 101
35 126 59 l23 21 20 -20 c16 -16 25 -18 40 -10 18 10 20 21 20 145 l0 135 -37
0 c-21 0 -43 -4 -49 -8 -6 -4 -23 -43 -37 -88 -50 -154 -51 -154 -57 -19 l-5
120 -51 3 c-33 2 -54 -2 -60 -10z"/>
<path d="M7955 11136 c-25 -20 -31 -21 -43 -9 -20 20 -35 12 -49 -28 -6 -19
-26 -74 -43 -123 -20 -58 -28 -92 -21 -99 5 -5 56 -11 113 -14 140 -5 153 3
185 124 29 108 30 128 8 153 -27 30 -110 28 -150 -4z m58 -131 c-3 -22 -12
-49 -19 -60 -13 -18 -14 -17 -14 15 0 19 5 53 11 74 14 51 31 28 22 -29z"/>
<path d="M8160 11140 c0 -24 -23 -129 -46 -208 -8 -29 -12 -57 -9 -63 12 -19
155 16 155 38 0 40 33 71 94 89 34 9 65 21 70 25 13 12 -38 29 -85 29 l-39 0
0 55 0 55 -70 0 c-64 0 -70 -2 -70 -20z"/>
<path d="M10250 11139 c0 -5 5 -7 10 -4 6 3 10 8 10 11 0 2 -4 4 -10 4 -5 0
-10 -5 -10 -11z"/>
<path d="M10516 11062 c-2 -4 -1 -14 4 -22 7 -11 9 -9 7 8 -1 24 -3 26 -11 14z"/>
<path d="M10015 11050 c-3 -5 -1 -10 4 -10 6 0 11 5 11 10 0 6 -2 10 -4 10 -3
0 -8 -4 -11 -10z"/>
<path d="M10455 11040 c-13 -6 -15 -9 -5 -9 8 0 22 4 30 9 18 12 2 12 -25 0z"/>
<path d="M10496 11012 c-3 -5 1 -9 9 -9 8 0 12 4 9 9 -3 4 -7 8 -9 8 -2 0 -6
-4 -9 -8z"/>
<path d="M10007 10971 c-7 -14 -29 -35 -50 -46 -34 -18 -52 -55 -27 -55 6 0
10 -4 10 -9 0 -19 -73 -33 -142 -29 -60 5 -70 3 -79 -14 -5 -10 -14 -16 -20
-13 -5 4 -18 3 -29 0 -20 -6 -20 -7 4 -26 14 -11 28 -28 31 -39 7 -23 25 -27
25 -5 0 8 -5 15 -11 15 -5 0 -7 4 -4 10 3 5 16 9 28 8 30 -2 128 11 166 22 33
9 44 -4 12 -15 -11 -3 -26 -17 -35 -30 -9 -14 -25 -25 -36 -25 -28 0 -14 -29
17 -37 19 -4 30 0 42 14 13 18 23 20 60 14 l44 -6 -103 -68 c-98 -66 -101 -69
-81 -83 29 -20 26 -30 -9 -43 -36 -12 -38 -24 -7 -44 21 -13 25 -13 46 4 17
14 22 26 18 46 -7 36 19 85 41 81 9 -2 23 -18 31 -36 17 -36 20 -38 47 -17 18
14 18 14 -7 15 -24 0 -26 4 -24 32 2 22 10 35 30 46 26 13 29 13 44 -7 23 -30
48 -13 31 20 -7 13 -16 26 -20 29 -11 8 -70 137 -70 154 0 8 7 31 16 49 16 34
17 34 35 16 21 -21 54 -25 65 -7 4 6 0 16 -9 23 -14 10 -11 15 26 36 l42 24
-30 3 c-16 2 -47 7 -67 12 -35 7 -39 6 -51 -19z"/>
<path d="M10434 10963 c-1 -16 1 -22 3 -14 5 11 7 11 14 0 5 -8 9 -9 9 -3 0 5
-6 18 -12 27 -12 15 -13 14 -14 -10z"/>
<path d="M10502 10950 c-12 -16 -22 -34 -22 -40 0 -11 -3 -12 -42 -14 -15 -1
-30 -5 -33 -8 -4 -4 5 -5 20 -4 33 4 31 -1 -39 -103 -31 -44 -56 -92 -56 -105
0 -13 -7 -29 -15 -36 -8 -6 -17 -21 -20 -31 -4 -11 -17 -31 -31 -44 -26 -27
-31 -45 -11 -45 18 0 37 21 37 42 0 9 9 22 20 28 11 6 23 22 26 35 3 14 10 25
14 25 19 0 190 313 178 325 -2 3 -14 -9 -26 -25z"/>
<path d="M10280 10951 c0 -10 39 -36 45 -29 2 2 -8 11 -21 21 -13 10 -24 13
-24 8z"/>
<path d="M10357 10883 c3 -7 6 -13 8 -13 2 0 5 6 8 13 3 8 -1 14 -8 14 -7 0
-11 -6 -8 -14z"/>
<path d="M10290 10756 c0 -2 8 -10 18 -17 15 -13 16 -12 3 4 -13 16 -21 21
-21 13z"/>
<path d="M10115 10699 c-4 -6 -5 -12 -2 -15 2 -3 7 2 10 11 7 17 1 20 -8 4z"/>
<path d="M10206 10478 c-8 -18 -28 -46 -45 -62 -34 -31 -76 -104 -66 -114 13
-13 41 17 74 79 19 35 45 72 58 82 26 21 31 47 8 47 -8 0 -21 -15 -29 -32z"/>
<path d="M10047 10257 c-16 -17 -39 -53 -52 -78 -13 -26 -31 -49 -39 -52 -8
-3 -24 -23 -35 -45 -11 -21 -36 -51 -55 -66 -20 -15 -36 -36 -36 -46 0 -11
-13 -32 -30 -46 -16 -15 -33 -36 -36 -48 -4 -12 -24 -36 -45 -54 -21 -18 -46
-48 -55 -67 -9 -19 -28 -42 -42 -51 -15 -9 -36 -27 -48 -38 -34 -35 -114 -144
-114 -156 0 -14 85 51 113 87 12 15 34 42 49 58 15 17 28 37 28 45 0 9 12 23
28 32 15 9 38 35 52 58 14 23 42 59 63 80 20 21 37 45 37 52 0 8 12 23 28 35
15 11 34 33 42 49 8 16 29 46 47 67 18 20 33 43 33 50 0 7 16 28 35 46 30 28
75 97 75 116 0 13 -17 2 -43 -28z"/>
<path d="M6268 10064 c-29 -15 -35 -28 -19 -38 12 -8 55 28 50 41 -3 8 -13 7
-31 -3z"/>
<path d="M8533 9833 c-18 -21 -52 -60 -77 -88 -25 -27 -43 -51 -41 -54 5 -4
93 61 143 107 32 29 40 61 17 69 -6 2 -25 -14 -42 -34z"/>
<path d="M7520 9260 c-74 -32 -148 -63 -165 -70 -63 -24 -102 -39 -155 -59
-64 -23 -40 -28 34 -6 28 8 92 26 141 40 107 31 305 123 305 142 0 20 -15 16
-160 -47z"/>
<path d="M10387 11994 c-3 -3 -2 -17 3 -30 6 -14 6 -26 0 -29 -15 -9 -12 -22
6 -22 12 0 14 7 11 26 -3 16 1 33 10 44 15 16 14 17 -4 17 -11 0 -22 -3 -26
-6z"/>
<path d="M10308 11972 c-18 -4 -23 -14 -12 -25 4 -3 13 1 21 9 18 17 15 22 -9
16z"/>
<path d="M10353 11972 c-10 -7 -10 -12 0 -27 17 -22 37 -12 30 15 -6 22 -11
24 -30 12z"/>
<path d="M10210 11955 c-10 -12 -10 -15 2 -15 8 0 15 7 15 15 0 8 -1 15 -2 15
-2 0 -8 -7 -15 -15z"/>
<path d="M10140 11946 c0 -2 7 -6 15 -10 8 -3 15 -1 15 4 0 6 -7 10 -15 10 -8
0 -15 -2 -15 -4z"/>
<path d="M10280 11869 c0 -5 -5 -7 -10 -4 -6 3 -13 -1 -16 -9 -3 -9 -10 -14
-15 -11 -4 3 -12 -3 -18 -13 -7 -14 -6 -18 9 -19 11 -1 20 7 24 21 5 19 11 22
31 18 20 -3 24 -1 19 12 -7 18 -24 22 -24 5z"/>
<path d="M9870 11860 c-9 -6 -10 -10 -3 -10 6 0 15 5 18 10 8 12 4 12 -15 0z"/>
<path d="M9972 11828 c5 -15 28 -23 28 -10 0 5 -7 13 -16 16 -10 4 -14 1 -12
-6z"/>
<path d="M10220 11790 c0 -5 7 -10 16 -10 8 0 12 5 9 10 -3 6 -10 10 -16 10
-5 0 -9 -4 -9 -10z"/>
<path d="M10385 11740 c3 -5 12 -7 20 -3 21 7 19 13 -6 13 -11 0 -18 -4 -14
-10z"/>
<path d="M9915 11638 c-33 -19 -59 -47 -51 -55 8 -8 38 8 36 20 0 4 9 17 22
27 26 22 23 25 -7 8z"/>
<path d="M10660 11669 c0 -5 5 -7 10 -4 6 3 10 8 10 11 0 2 -4 4 -10 4 -5 0
-10 -5 -10 -11z"/>
<path d="M10125 11544 c-11 -8 -20 -18 -19 -22 2 -15 -9 -42 -17 -42 -5 0 -9
-9 -9 -20 0 -11 -4 -20 -10 -20 -5 0 -10 -5 -10 -10 0 -7 6 -7 20 0 11 6 20
19 20 29 0 11 7 22 16 25 8 3 12 10 9 16 -3 5 -2 10 4 10 15 0 42 31 36 41 -8
12 -17 11 -40 -7z"/>
<path d="M9460 11596 c0 -9 7 -16 16 -16 9 0 14 5 12 12 -6 18 -28 21 -28 4z"/>
<path d="M10116 11124 c-4 -9 -4 -19 -1 -22 2 -3 7 3 11 12 4 9 4 19 1 22 -2
3 -7 -3 -11 -12z"/>
<path d="M8714 10487 c-3 -10 -4 -21 0 -24 3 -3 1 -12 -5 -19 -6 -8 -9 -21 -5
-29 4 -12 10 -13 31 -3 14 6 25 14 26 17 0 3 2 16 5 29 2 15 0 21 -7 17 -6 -4
-16 1 -24 11 -13 18 -14 18 -21 1z"/>
<path d="M14235 7380 c3 -5 8 -10 11 -10 2 0 4 5 4 10 0 6 -5 10 -11 10 -5 0
-7 -4 -4 -10z"/>
<path d="M14230 7330 c0 -11 5 -20 11 -20 5 0 7 -6 3 -12 -4 -7 3 -3 15 10 12
12 20 28 18 35 -4 9 -6 9 -6 -1 -1 -10 -6 -10 -21 -2 -17 9 -20 8 -20 -10z"/>
<path d="M14274 7281 c4 -6 0 -11 -10 -11 -12 0 -15 -6 -11 -26 3 -17 0 -28
-11 -31 -12 -5 -10 -8 7 -15 13 -4 27 -6 32 -2 15 9 10 31 -8 38 -15 6 -15 9
-3 16 8 5 17 7 21 4 4 -2 10 0 14 5 3 6 -4 15 -16 21 -15 8 -19 9 -15 1z"/>
<path d="M14247 7183 c-4 -3 -7 -11 -7 -17 0 -6 5 -5 12 2 6 6 9 14 7 17 -3 3
-9 2 -12 -2z"/>
<path d="M14207 7063 c-4 -3 -7 -11 -7 -17 0 -6 5 -5 12 2 6 6 9 14 7 17 -3 3
-9 2 -12 -2z"/>
<path d="M3980 6420 c0 -5 5 -10 10 -10 6 0 10 5 10 10 0 6 -4 10 -10 10 -5 0
-10 -4 -10 -10z"/>
<path d="M12793 5159 c-13 -5 -23 -13 -23 -19 0 -14 13 -13 44 4 31 16 14 28
-21 15z"/>
<path d="M12756 5100 c-10 -10 -16 -25 -13 -32 4 -10 6 -10 6 0 1 6 6 12 12
12 6 0 8 -8 5 -17 -6 -17 -5 -17 8 0 10 14 15 15 19 5 3 -7 6 0 6 16 1 24 3
27 16 16 9 -7 15 -8 15 -2 0 10 -24 22 -43 21 -7 0 -20 -9 -31 -19z"/>
<path d="M12725 5040 c-8 -13 4 -32 16 -25 12 8 12 35 0 35 -6 0 -13 -4 -16
-10z"/>
<path d="M12740 4950 c0 -5 5 -10 10 -10 6 0 10 5 10 10 0 6 -4 10 -10 10 -5
0 -10 -4 -10 -10z"/>
<path d="M5700 4889 c0 -5 5 -7 10 -4 6 3 10 8 10 11 0 2 -4 4 -10 4 -5 0 -10
-5 -10 -11z"/>
<path d="M11966 4468 c3 -4 12 -8 20 -8 8 0 14 4 14 8 0 4 -9 8 -19 8 -11 0
-17 -4 -15 -8z"/>
<path d="M6265 4340 c3 -5 11 -10 16 -10 6 0 7 5 4 10 -3 6 -11 10 -16 10 -6
0 -7 -4 -4 -10z"/>
<path d="M6300 4302 c0 -12 19 -26 26 -19 2 2 -2 10 -11 17 -9 8 -15 8 -15 2z"/>
<path d="M14178 13766 c-114 -61 -206 -114 -205 -118 4 -11 131 -158 137 -158
3 0 57 71 120 157 63 86 128 174 143 195 16 21 25 38 20 37 -4 -1 -101 -51
-215 -113z"/>
<path d="M16057 8858 c-9 -7 -19 -25 -22 -40 -9 -35 36 -82 69 -72 26 7 56 41
56 63 0 45 -66 76 -103 49z"/>
<path d="M1570 8630 c-27 -27 -25 -56 7 -86 30 -27 57 -25 86 8 22 27 22 49
-3 76 -26 27 -64 28 -90 2z"/>
<path d="M4204 3244 c-87 -64 -180 -131 -207 -150 l-47 -34 82 -74 c46 -41 86
-71 90 -68 11 11 248 435 245 438 -2 2 -75 -48 -163 -112z"/>
<path d="M13020 3176 c0 -8 211 -450 219 -458 6 -7 164 115 169 131 2 5 -34
39 -80 77 -46 37 -134 110 -195 162 -62 51 -113 91 -113 88z"/>
<path d="M11413 2225 c3 -11 23 -126 43 -255 21 -129 38 -236 39 -238 3 -4
188 69 199 79 7 7 -236 383 -271 419 -13 13 -15 13 -10 -5z"/>
<path d="M6572 2076 c-33 -94 -62 -177 -64 -185 -4 -17 54 -39 103 -40 83 -2
157 100 167 229 4 63 3 68 -27 102 -18 21 -50 43 -75 51 l-44 15 -60 -172z"/>
<path d="M10748 2185 l-47 -15 14 -48 c8 -26 34 -111 57 -190 l42 -144 35 7
c87 16 126 68 114 155 -17 130 -76 235 -138 245 -16 2 -51 -2 -77 -10z"/>
<path d="M10875 1718 c-16 -6 -31 -12 -32 -13 -3 -1 107 -379 122 -422 3 -8
15 -8 49 2 65 20 85 32 106 68 48 79 -8 287 -96 356 -30 23 -96 27 -149 9z"/>
<path d="M8320 1899 c0 -31 -39 -793 -44 -861 l-4 -58 59 0 c34 0 73 7 89 15
43 22 77 102 96 225 21 134 25 514 6 577 -18 61 -56 101 -100 108 -108 17
-102 17 -102 -6z"/>
</g>
</svg>
