<?xml version="1.0" standalone="no"?>
<!DOCTYPE svg PUBLIC "-//W3C//DTD SVG 20010904//EN"
 "http://www.w3.org/TR/2001/REC-SVG-20010904/DTD/svg10.dtd">
<svg version="1.0" xmlns="http://www.w3.org/2000/svg"
 width="1024.000000pt" height="1024.000000pt" viewBox="0 0 1024.000000 1024.000000"
 preserveAspectRatio="xMidYMid meet">

<g transform="translate(0.000000,1024.000000) scale(0.100000,-0.100000)"
fill="#000000" stroke="none">
<path d="M4670 8837 c-228 -63 -373 -292 -331 -525 11 -62 50 -158 81 -202 9
-12 -1 -28 -50 -79 -33 -35 -72 -85 -85 -112 -75 -146 -72 -327 6 -454 l31
-50 -23 -14 c-47 -29 -135 -128 -161 -183 -38 -78 -51 -148 -45 -243 6 -99 34
-175 93 -255 l44 -60 -36 -46 c-91 -121 -126 -272 -93 -413 39 -169 187 -308
364 -340 37 -7 199 -11 424 -11 200 1 365 -1 367 -2 3 -4 -139 -417 -281 -818
-65 -184 -80 -264 -72 -379 14 -191 97 -333 223 -381 75 -28 183 -34 281 -17
190 35 299 129 388 336 31 73 377 637 417 680 9 10 99 79 200 154 645 477 673
497 743 524 98 39 219 122 364 253 132 117 229 176 309 187 l42 6 0 -97 0 -96
463 2 462 3 3 113 3 112 -346 0 -345 0 -1 1033 c-1 567 0 1043 1 1057 2 32 24
66 52 82 17 10 106 14 328 18 l305 5 3 113 3 113 -333 -3 -333 -3 -67 -33
c-70 -34 -124 -87 -159 -154 l-19 -38 -259 0 -259 0 -58 36 c-125 75 -268 134
-414 171 -58 15 -182 17 -1125 19 -821 2 -1070 0 -1105 -9z m899 -227 c129
-37 198 -192 142 -316 -23 -51 -90 -108 -144 -123 -30 -9 -159 -11 -442 -9
-367 3 -403 5 -434 21 -168 92 -166 334 3 413 l51 24 395 0 c228 0 410 -4 429
-10z m1323 -22 c167 -46 310 -129 417 -244 71 -76 105 -140 126 -239 7 -37 16
-70 19 -73 7 -7 215 28 221 38 9 15 -34 189 -63 253 l-31 67 145 0 144 0 0
-312 c0 -172 0 -556 0 -853 1 -297 0 -552 0 -567 0 -24 -4 -27 -52 -33 -64 -9
-177 -48 -238 -83 -62 -36 -108 -72 -229 -180 -130 -117 -206 -168 -298 -203
-40 -14 -96 -44 -125 -65 -104 -76 -625 -459 -753 -554 -147 -110 -145 -108
-337 -415 -69 -110 -141 -226 -161 -257 -21 -32 -64 -113 -96 -181 -80 -170
-132 -207 -292 -207 -94 0 -110 11 -133 91 -27 91 -21 196 18 313 19 55 102
296 184 535 l150 435 59 12 c136 28 240 110 304 239 37 74 42 94 46 172 8 139
-25 250 -102 340 l-36 42 45 58 c64 83 88 149 94 264 5 106 -10 177 -56 263
l-26 48 29 21 c57 40 116 111 152 184 32 65 37 84 41 171 7 158 -28 251 -140
368 -48 50 -56 63 -45 73 8 6 28 42 46 79 54 118 59 271 12 376 -11 27 -21 51
-21 53 0 2 199 3 443 1 440 -4 442 -4 539 -30z m-1227 -669 c24 -6 63 -27 86
-47 126 -108 99 -306 -53 -383 -35 -18 -66 -19 -548 -19 -557 0 -552 0 -613
58 -77 73 -96 196 -44 284 32 54 77 92 127 106 50 15 988 15 1045 1z m-99
-706 c88 -47 131 -130 121 -231 -10 -91 -64 -163 -146 -190 -46 -16 -1009 -17
-1066 -1 -26 7 -57 28 -87 59 -79 82 -88 193 -23 292 14 21 36 45 50 54 66 43
77 44 605 41 498 -2 506 -2 546 -24z m-1 -690 c51 -27 79 -57 104 -113 45 -99
11 -224 -77 -285 l-44 -30 -530 -3 -529 -3 -49 27 c-178 97 -144 377 52 424
18 5 258 8 533 7 491 -2 501 -2 540 -24z"/>
<path d="M1667 8729 c-67 -8 -207 -56 -213 -74 -5 -13 59 -192 73 -205 4 -5
40 5 78 21 79 32 164 38 218 15 18 -7 83 -47 144 -89 146 -99 212 -121 356
-115 89 3 110 8 170 36 38 17 104 56 147 87 105 74 153 95 220 95 69 0 111
-19 241 -109 126 -87 198 -113 319 -113 121 0 191 25 330 118 127 85 190 132
190 142 0 10 -120 176 -129 180 -4 1 -57 -34 -117 -78 -152 -111 -182 -125
-274 -125 -86 1 -104 8 -225 95 -144 104 -204 124 -356 118 -128 -4 -188 -27
-312 -116 -108 -79 -158 -102 -223 -102 -75 0 -124 21 -238 102 -146 105 -249
135 -399 117z"/>
<path d="M1615 7106 c-58 -15 -154 -54 -173 -71 -10 -9 -3 -31 32 -108 24 -54
46 -100 48 -103 3 -2 36 10 74 28 57 27 81 33 139 33 81 0 107 -11 214 -90
137 -102 252 -142 382 -132 105 8 170 36 306 127 182 124 259 129 404 28 138
-96 154 -105 214 -129 80 -30 243 -34 322 -6 57 20 207 113 201 125 -9 20
-124 181 -130 182 -3 0 -33 -18 -65 -40 -64 -44 -142 -65 -202 -54 -49 9 -92
32 -183 98 -145 104 -224 131 -362 123 -112 -6 -180 -30 -282 -100 -142 -97
-174 -115 -227 -121 -77 -10 -126 10 -267 106 -99 66 -139 88 -192 101 -78 20
-181 21 -253 3z"/>
<path d="M1555 6054 c-44 -14 -81 -27 -82 -28 -6 -5 69 -216 76 -216 4 0 34 9
66 20 68 24 161 26 210 6 19 -8 77 -44 129 -81 52 -36 118 -76 148 -90 127
-58 283 -55 408 8 73 37 312 206 308 217 -8 19 -124 179 -131 179 -4 1 -66
-41 -137 -91 -145 -103 -172 -116 -246 -117 -72 -1 -105 12 -223 92 -163 109
-195 121 -331 124 -101 3 -124 0 -195 -23z"/>
<path d="M3248 5622 l-98 -3 -2 -1207 -3 -1207 -338 -3 -338 -2 32 -48 c18
-26 71 -103 119 -172 48 -69 174 -251 280 -405 107 -154 244 -352 305 -440 61
-88 141 -203 176 -255 194 -283 341 -490 348 -486 4 3 43 57 86 121 44 64 104
151 134 193 69 97 532 764 624 897 38 55 145 210 237 345 l169 245 -337 5
-337 5 -3 1210 -2 1210 -113 -1 -112 -1 -3 -1327 -2 -1326 231 0 c146 0 229
-4 227 -10 -1 -5 -97 -146 -213 -312 -225 -324 -284 -409 -469 -677 -65 -95
-122 -168 -127 -164 -4 4 -186 267 -404 583 l-397 575 231 3 231 2 -2 1327
c-3 1170 -5 1326 -18 1327 -8 1 -59 0 -112 -2z"/>
<path d="M1615 4686 c-64 -17 -109 -36 -167 -72 l-48 -30 51 -89 c27 -50 54
-94 58 -98 5 -5 39 8 77 27 80 42 153 54 216 37 24 -7 90 -45 146 -86 57 -40
124 -82 150 -93 113 -49 275 -52 383 -8 62 25 279 174 279 191 0 10 -118 185
-125 185 -2 0 -52 -34 -111 -75 -194 -136 -252 -136 -447 -4 -66 45 -145 91
-176 102 -71 25 -216 32 -286 13z"/>
<path d="M7233 4685 c-72 -20 -121 -46 -236 -126 -181 -125 -251 -117 -477 51
-29 22 -57 40 -60 40 -8 0 -130 -175 -130 -187 1 -13 204 -151 262 -178 69
-31 176 -49 247 -42 99 11 159 36 274 114 136 92 179 113 237 113 74 0 112
-16 229 -99 160 -113 283 -148 431 -121 90 16 137 39 252 121 108 78 151 98
213 99 60 0 107 -16 172 -60 32 -21 61 -36 65 -34 4 3 34 44 68 92 l60 87 -32
28 c-49 41 -160 94 -225 108 -78 16 -204 6 -275 -20 -31 -12 -107 -57 -169
-101 -129 -91 -185 -110 -267 -90 -54 12 -85 30 -212 117 -49 34 -114 70 -143
79 -72 23 -218 28 -284 9z"/>
<path d="M1608 3650 c-39 -10 -160 -68 -190 -92 -16 -12 -14 -20 33 -103 28
-49 54 -93 58 -98 4 -4 42 11 85 33 64 33 87 40 134 40 82 -1 113 -15 260
-119 73 -51 136 -90 141 -87 5 3 36 45 69 94 l61 89 -139 96 c-193 136 -228
150 -365 154 -60 1 -127 -2 -147 -7z"/>
<path d="M6100 3646 c-66 -19 -125 -51 -217 -118 -101 -72 -138 -88 -205 -88
-85 0 -119 15 -254 111 -71 50 -133 93 -139 95 -12 5 -137 -174 -130 -186 6
-9 208 -152 266 -188 124 -76 314 -88 446 -27 29 13 90 51 137 84 127 90 140
96 226 96 86 0 111 -10 230 -96 241 -173 434 -167 700 20 92 66 131 81 200 81
65 -1 103 -18 215 -94 126 -87 182 -113 276 -127 141 -22 257 14 416 129 106
78 152 95 234 90 53 -4 81 -13 132 -41 75 -42 64 -48 132 77 54 101 60 88 -64
149 -77 38 -93 42 -179 45 -157 7 -230 -17 -389 -130 -102 -72 -138 -87 -216
-88 -72 0 -109 15 -213 90 -154 110 -228 135 -373 127 -122 -6 -180 -28 -302
-114 -120 -85 -160 -103 -230 -103 -79 0 -110 13 -224 94 -140 99 -194 119
-325 123 -65 1 -122 -3 -150 -11z"/>
<path d="M1605 2035 c-27 -8 -80 -14 -117 -15 l-68 0 0 -180 c0 -99 3 -180 6
-180 3 0 43 26 87 59 118 84 142 95 217 95 78 0 114 -15 249 -109 113 -78 181
-105 281 -112 144 -10 225 20 424 159 72 50 133 92 135 94 4 4 -109 171 -124
184 -6 5 -58 -26 -130 -77 -155 -110 -182 -123 -270 -123 -82 0 -100 8 -252
112 -123 83 -194 108 -305 107 -46 0 -105 -7 -133 -14z"/>
<path d="M4980 2036 c-61 -17 -100 -39 -195 -104 -44 -30 -106 -73 -137 -94
-32 -21 -58 -43 -58 -49 0 -6 28 -50 62 -97 34 -48 63 -88 64 -90 1 -2 60 38
130 89 155 110 180 122 264 122 76 0 111 -16 257 -117 119 -82 178 -101 308
-100 126 1 182 21 320 114 122 82 148 95 202 104 75 11 133 -10 245 -86 131
-90 186 -116 286 -130 62 -9 95 -9 149 1 90 16 145 42 271 129 75 51 118 74
155 82 71 14 146 -1 205 -42 223 -153 251 -166 384 -175 133 -9 219 21 383
136 168 119 242 119 414 0 56 -38 104 -69 106 -69 3 0 5 81 5 180 l0 180 -65
0 c-35 0 -90 7 -122 15 -120 31 -277 11 -373 -49 -28 -17 -90 -58 -137 -91
l-86 -60 -98 0 -97 0 -64 44 c-154 107 -176 121 -228 142 -47 20 -73 23 -170
23 -140 0 -189 -16 -321 -108 -140 -96 -162 -106 -247 -106 -84 0 -101 7 -217
90 -151 108 -233 136 -374 127 -128 -8 -167 -26 -369 -168 l-64 -44 -98 0
c-96 0 -99 1 -147 34 -221 158 -253 172 -398 177 -63 2 -117 -1 -145 -10z"/>
</g>
</svg>
