<?xml version="1.0" standalone="no"?>
<!DOCTYPE svg PUBLIC "-//W3C//DTD SVG 20010904//EN"
 "http://www.w3.org/TR/2001/REC-SVG-20010904/DTD/svg10.dtd">
<svg version="1.0" xmlns="http://www.w3.org/2000/svg"
 width="992.000000pt" height="1068.000000pt" viewBox="0 0 992.000000 1068.000000"
 preserveAspectRatio="xMidYMid meet">

<g transform="translate(0.000000,1068.000000) scale(0.100000,-0.100000)"
fill="#000000" stroke="none">
<path d="M6015 8979 c-324 -134 -317 -130 -330 -163 -10 -24 -10 -69 -2 -204
l10 -173 -29 -29 -29 -29 -85 66 c-599 466 -1348 623 -2085 437 -413 -104
-836 -354 -1140 -676 -177 -188 -308 -378 -420 -610 -315 -655 -309 -1429 15
-2087 111 -224 212 -374 370 -546 352 -386 801 -641 1307 -744 607 -123 1213
-12 1741 320 l95 60 46 -53 c25 -29 123 -139 218 -246 l172 -193 -15 -34 c-10
-25 -11 -41 -4 -60 12 -31 57 -83 995 -1120 198 -219 373 -414 389 -433 38
-45 86 -65 122 -52 14 6 99 77 188 158 89 81 225 205 303 275 135 123 153 145
153 193 0 14 -69 98 -197 239 -109 120 -220 244 -248 276 -269 308 -973 1078
-998 1091 -25 13 -41 16 -64 9 -30 -9 -33 -6 -139 112 -60 67 -136 151 -169
187 -133 144 -177 200 -171 215 3 8 29 50 58 92 73 109 197 357 243 488 33 92
47 118 89 163 l49 52 136 0 136 0 119 -131 c119 -131 151 -155 190 -143 70 22
424 188 439 205 19 23 21 115 9 297 l-7 92 95 95 95 94 183 -10 c183 -11 183
-11 207 11 13 12 40 61 59 109 19 47 58 141 85 209 28 67 51 136 51 153 0 44
-23 71 -154 184 l-116 100 0 135 0 135 101 90 c157 140 172 160 167 209 -5 37
-122 336 -169 428 -12 23 -29 40 -44 44 -14 3 -102 1 -197 -6 l-172 -12 -94
96 -95 96 11 171 c11 175 8 202 -24 230 -38 33 -420 189 -463 189 -31 0 -73
-39 -206 -192 l-67 -78 -142 0 -141 0 -90 102 c-152 171 -149 168 -186 167
-19 0 -88 -22 -154 -50z m277 -309 l76 -85 219 2 218 2 45 48 c25 27 77 83
115 126 l70 78 143 -62 144 -62 -6 -31 c-3 -17 -8 -95 -12 -174 l-7 -142 134
-136 c74 -75 146 -142 161 -150 24 -12 52 -13 188 -3 89 6 162 10 164 8 6 -7
116 -271 116 -278 0 -5 -54 -57 -119 -116 -65 -59 -124 -118 -130 -132 -7 -15
-11 -97 -11 -215 l0 -191 48 -46 c26 -25 84 -80 130 -121 l84 -75 -58 -143
-58 -144 -141 9 c-235 13 -195 28 -362 -139 l-145 -146 4 -178 3 -178 -134
-60 -133 -60 -37 40 c-20 21 -73 80 -118 129 l-82 90 -190 3 c-191 3 -191 3
-186 25 15 63 26 179 32 322 l6 160 118 -3 c96 -3 132 0 194 17 252 70 452
271 516 519 27 106 26 272 -2 372 -34 125 -93 224 -189 320 -96 96 -179 149
-295 187 -69 22 -98 26 -210 27 -110 1 -141 -3 -205 -22 -102 -33 -177 -72
-250 -133 -34 -28 -63 -49 -65 -47 -1 1 -38 50 -81 108 -42 58 -103 132 -133
165 -106 113 -102 97 -41 161 l53 56 -8 141 c-5 78 -9 157 -9 175 l-1 33 140
59 140 60 40 -43 c22 -23 74 -80 117 -127z m-1957 99 c391 -48 765 -201 1077
-441 197 -153 414 -388 536 -583 225 -361 332 -745 332 -1183 -1 -353 -70
-654 -225 -967 -116 -235 -242 -412 -425 -595 -445 -445 -1019 -670 -1650
-647 -297 11 -545 69 -821 192 -352 157 -688 438 -916 765 -389 561 -496 1283
-287 1935 146 454 437 851 824 1124 131 92 197 131 341 201 370 178 805 249
1214 199z m2390 -874 c246 -64 431 -319 411 -566 -7 -89 -22 -142 -61 -221
-74 -151 -252 -275 -421 -293 -52 -6 -189 7 -200 18 -2 2 -13 58 -24 123 -35
215 -101 429 -198 643 l-56 124 48 44 c139 125 326 173 501 128z m-774 -2947
c30 -35 125 -143 211 -240 87 -97 158 -180 158 -185 0 -5 -33 -38 -72 -73 -40
-36 -112 -100 -160 -143 l-86 -77 -211 236 -210 236 152 153 c84 84 155 153
158 154 3 1 30 -27 60 -61z m1130 -1138 c309 -344 593 -658 631 -699 37 -41
68 -78 68 -82 0 -4 -66 -67 -147 -141 -82 -73 -181 -164 -221 -202 -71 -69
-73 -70 -91 -50 -38 40 -232 254 -375 413 -81 91 -284 317 -451 501 -166 184
-332 370 -370 412 l-67 78 53 47 c30 27 129 117 222 201 93 84 172 152 177
150 4 -2 261 -284 571 -628z"/>
<path d="M3920 8449 c-480 -43 -889 -240 -1225 -591 -258 -268 -420 -592 -492
-978 -22 -121 -25 -486 -5 -600 102 -568 412 -1033 882 -1320 673 -411 1505
-367 2135 112 783 596 973 1711 432 2531 -233 352 -601 631 -1002 760 -255 81
-483 109 -725 86z m465 -199 c684 -144 1211 -659 1354 -1323 61 -285 51 -564
-33 -842 -171 -574 -621 -1013 -1196 -1169 -267 -73 -602 -75 -861 -7 -422
112 -766 356 -1003 711 -274 410 -357 894 -236 1369 77 301 249 595 471 806
276 262 609 422 987 474 112 16 402 5 517 -19z"/>
<path d="M3943 7720 c-372 -38 -720 -275 -897 -611 -94 -178 -130 -328 -131
-539 0 -336 113 -600 356 -836 93 -89 168 -143 276 -198 190 -95 409 -135 629
-115 199 19 358 75 526 184 412 269 606 768 484 1247 -34 133 -76 229 -155
349 -237 366 -652 563 -1088 519z m320 -191 c185 -37 347 -125 489 -265 134
-131 231 -302 269 -474 32 -143 30 -321 -5 -459 -56 -217 -182 -408 -358 -542
-98 -73 -234 -141 -344 -170 -114 -30 -312 -37 -429 -15 -193 37 -357 126
-510 280 -190 192 -285 418 -285 678 0 274 91 496 280 688 105 107 151 141
267 199 199 98 407 125 626 80z"/>
<path d="M4598 7023 c-9 -2 -154 -159 -323 -349 -168 -189 -309 -344 -313
-344 -4 0 -99 77 -211 170 -112 94 -215 173 -229 177 -39 9 -75 -9 -97 -49
-18 -33 -18 -39 -5 -66 16 -32 464 -414 516 -439 33 -16 67 -13 94 10 9 6 108
116 220 242 112 127 262 294 332 373 75 85 129 155 133 172 15 66 -47 122
-117 103z"/>
</g>
</svg>
