<?xml version="1.0" standalone="no"?>
<!DOCTYPE svg PUBLIC "-//W3C//DTD SVG 20010904//EN"
 "http://www.w3.org/TR/2001/REC-SVG-20010904/DTD/svg10.dtd">
<svg version="1.0" xmlns="http://www.w3.org/2000/svg"
 width="32.000000pt" height="32.000000pt" viewBox="0 0 32.000000 32.000000"
 preserveAspectRatio="xMidYMid meet">

<g transform="translate(0.000000,32.000000) scale(0.100000,-0.100000)"
fill="#000000" stroke="none">
<path d="M111 286 c-67 -37 -65 -143 3 -174 17 -7 24 -17 20 -27 -7 -18 -9
-18 -54 -5 -19 5 -43 7 -52 4 -21 -6 -25 -50 -5 -56 10 -3 236 -3 275 1 19 2
15 49 -6 55 -9 3 -33 1 -52 -4 -45 -13 -47 -13 -54 5 -4 10 3 20 20 27 28 13
54 55 54 87 0 75 -83 124 -149 87z m110 -25 c51 -51 39 -91 -45 -159 -18 -14
-21 -12 -77 40 -39 36 -39 79 0 119 20 20 39 29 61 29 22 0 41 -9 61 -29z
m-174 -218 c-3 -10 -5 -4 -5 12 0 17 2 24 5 18 2 -7 2 -21 0 -30z m146 25 c15
-7 27 -16 27 -19 0 -11 -58 -19 -90 -12 -36 7 -38 14 -7 29 30 16 39 16 70 2z
m84 -25 c-3 -10 -5 -4 -5 12 0 17 2 24 5 18 2 -7 2 -21 0 -30z m-250 5 c-3 -8
-6 -5 -6 6 -1 11 2 17 5 13 3 -3 4 -12 1 -19z m63 7 c0 -8 -7 -15 -15 -15 -8
0 -15 7 -15 15 0 8 7 15 15 15 8 0 15 -7 15 -15z m170 0 c0 -8 -7 -15 -15 -15
-8 0 -15 7 -15 15 0 8 7 15 15 15 8 0 15 -7 15 -15z m37 -7 c-3 -8 -6 -5 -6 6
-1 11 2 17 5 13 3 -3 4 -12 1 -19z"/>
<path d="M105 255 c-50 -49 -15 -135 55 -135 41 0 80 39 80 80 0 41 -39 80
-80 80 -19 0 -40 -9 -55 -25z m75 1 c0 -5 3 -7 6 -3 8 8 33 -16 27 -25 -2 -5
0 -8 4 -8 5 0 9 -9 9 -20 0 -11 -4 -20 -9 -20 -4 0 -5 -4 -2 -10 3 -5 -1 -10
-9 -10 -9 0 -15 -6 -14 -12 5 -22 -52 -22 -72 0 -11 11 -16 23 -13 26 4 3 2 6
-3 6 -5 0 -10 9 -10 20 0 11 5 20 10 20 5 0 7 3 3 6 -8 8 16 33 26 27 4 -2 7
0 7 4 0 5 9 9 20 9 11 0 20 -5 20 -10z"/>
<path d="M170 217 c-8 -7 -22 -21 -30 -31 -14 -18 -14 -18 6 -6 12 7 26 21 33
31 13 22 12 23 -9 6z"/>
<path d="M148 53 c6 -2 18 -2 25 0 6 3 1 5 -13 5 -14 0 -19 -2 -12 -5z"/>
</g>
</svg>
