<?xml version="1.0" standalone="no"?>
<!DOCTYPE svg PUBLIC "-//W3C//DTD SVG 20010904//EN"
 "http://www.w3.org/TR/2001/REC-SVG-20010904/DTD/svg10.dtd">
<svg version="1.0" xmlns="http://www.w3.org/2000/svg"
 width="258.000000pt" height="280.000000pt" viewBox="0 0 258.000000 280.000000"
 preserveAspectRatio="xMidYMid meet">

<g transform="translate(0.000000,280.000000) scale(0.100000,-0.100000)"
fill="#000000" stroke="none">
<path d="M1815 2590 c-72 -24 -146 -78 -197 -145 -65 -86 -105 -223 -94 -320
l7 -50 -76 -75 c-42 -41 -99 -101 -127 -133 l-50 -57 35 -44 c34 -41 39 -43
103 -50 81 -8 131 -33 201 -99 l53 -50 81 87 81 86 92 0 c196 0 356 90 430
241 33 68 51 178 41 254 -11 94 -28 89 -185 -60 -70 -66 -108 -95 -125 -95
-26 0 -151 95 -204 155 -53 60 -46 77 79 209 61 63 110 122 110 131 0 39 -153
47 -255 15z"/>
<path d="M343 2484 c-83 -74 -84 -92 -7 -206 31 -46 70 -97 86 -114 29 -31 84
-54 127 -54 15 0 119 -95 340 -311 l318 -310 -5 -53 c-7 -90 52 -182 163 -253
31 -19 46 -37 51 -58 15 -70 55 -119 303 -369 278 -281 311 -306 405 -306 125
0 236 117 236 250 -1 100 0 99 -407 501 -159 158 -171 168 -234 188 -67 22
-95 45 -152 123 -57 78 -127 112 -203 99 l-39 -7 -115 121 c-62 66 -198 206
-301 310 -182 185 -187 191 -194 240 -11 77 -32 112 -94 154 -76 51 -185 111
-202 111 -8 0 -42 -25 -76 -56z"/>
<path d="M842 1384 l-149 -155 -66 7 c-168 17 -351 -107 -417 -283 -39 -105
-35 -246 7 -260 7 -3 58 38 113 89 56 51 117 104 136 117 l34 23 90 -82 c102
-93 125 -127 111 -162 -5 -13 -51 -63 -101 -113 -100 -98 -129 -140 -110 -159
6 -6 47 -13 90 -14 188 -9 356 98 421 268 22 55 30 199 15 247 -5 15 15 43 94
127 55 59 100 111 100 115 0 4 -16 23 -36 42 -62 59 -87 113 -87 183 0 59 -1
62 -48 113 l-48 51 -149 -154z"/>
<path d="M1073 90 c-1 -25 1 -37 4 -27 5 18 5 18 18 0 12 -16 13 -15 8 10 -3
15 -9 25 -13 22 -5 -3 -11 5 -13 17 -2 13 -4 3 -4 -22z"/>
<path d="M1446 121 c-4 -5 3 -7 14 -4 26 7 25 -7 -1 -41 l-20 -26 28 1 c16 1
21 3 11 6 -16 4 -16 6 -2 28 9 13 13 29 9 35 -8 12 -32 13 -39 1z"/>
<path d="M1518 123 c26 -5 26 -6 7 -43 -9 -17 -13 -30 -11 -30 7 0 36 56 36
70 0 5 -12 9 -27 9 -24 -2 -25 -2 -5 -6z"/>
<path d="M1576 122 c-2 -4 4 -8 15 -8 10 0 19 4 19 8 0 10 -27 10 -34 0z"/>
<path d="M1645 121 c-3 -5 -1 -12 5 -16 5 -3 10 1 10 9 0 18 -6 21 -15 7z"/>
<path d="M1713 123 c21 -5 21 -7 2 -43 -9 -17 -13 -30 -10 -30 2 0 14 18 25
40 l20 40 -27 -1 c-17 -1 -21 -3 -10 -6z"/>
<path d="M1781 130 c-1 -3 -3 -22 -4 -43 -2 -31 1 -37 18 -37 13 0 16 3 8 8
-6 4 -13 23 -16 42 -2 19 -5 33 -6 30z"/>
<path d="M1838 123 c26 -5 26 -6 7 -43 -9 -17 -13 -30 -11 -30 7 0 36 56 36
70 0 5 -12 9 -27 9 -24 -2 -25 -2 -5 -6z"/>
<path d="M1895 120 c-3 -6 1 -7 9 -4 21 8 21 -19 1 -36 -23 -19 -18 -30 13
-29 26 1 26 1 3 8 -21 6 -22 8 -7 20 20 17 21 51 2 51 -8 0 -18 -4 -21 -10z"/>
<path d="M1956 121 c-4 -5 3 -7 14 -4 26 7 25 -7 -1 -41 l-20 -26 28 1 c16 1
21 3 11 6 -16 4 -16 6 -2 28 9 13 13 29 9 35 -8 12 -32 13 -39 1z"/>
<path d="M2028 123 c26 -5 26 -6 7 -43 -9 -17 -13 -30 -11 -30 7 0 36 56 36
70 0 5 -12 9 -27 9 -24 -2 -25 -2 -5 -6z"/>
<path d="M690 86 c0 -28 4 -36 18 -36 13 0 14 2 3 9 -8 5 -12 18 -8 30 3 12 1
24 -4 27 -5 3 -9 -11 -9 -30z"/>
<path d="M730 86 c0 -28 4 -36 18 -36 13 0 14 2 3 9 -8 5 -12 18 -8 30 3 12 1
24 -4 27 -5 3 -9 -11 -9 -30z"/>
<path d="M918 115 c-7 -7 3 -65 11 -65 4 0 5 16 3 35 -4 36 -5 38 -14 30z"/>
<path d="M525 100 c-4 -6 -2 -17 5 -24 8 -11 8 -15 -2 -19 -8 -4 -7 -6 5 -6 9
-1 17 6 17 14 0 8 -5 15 -11 15 -6 0 -9 7 -5 15 6 17 0 20 -9 5z"/>
<path d="M599 78 c4 -28 6 -29 9 -9 2 13 0 27 -5 32 -6 6 -7 -3 -4 -23z"/>
<path d="M796 97 c3 -10 9 -15 12 -12 3 3 0 11 -7 18 -10 9 -11 8 -5 -6z"/>
<path d="M960 95 c-7 -8 -9 -22 -6 -31 8 -22 41 -13 42 11 1 15 0 16 -3 3 -5
-21 -33 -24 -33 -5 0 7 5 18 12 25 7 7 9 12 6 12 -3 0 -11 -7 -18 -15z"/>
<path d="M1212 101 c-20 -12 -10 -46 13 -46 13 0 20 7 21 20 1 15 0 16 -3 3
-5 -21 -33 -24 -33 -5 0 7 5 18 12 25 14 14 9 15 -10 3z"/>
<path d="M1329 78 c4 -28 6 -29 9 -9 2 13 0 27 -5 32 -6 6 -7 -3 -4 -23z"/>
<path d="M631 78 c-1 -22 4 -28 19 -28 15 0 20 6 19 28 -2 23 -2 24 -6 5 -2
-13 -8 -23 -13 -23 -5 0 -11 10 -13 23 -4 19 -4 18 -6 -5z"/>
<path d="M774 75 c1 -12 9 -21 21 -22 14 -1 15 0 3 3 -9 3 -19 13 -21 22 -3
12 -4 11 -3 -3z"/>
<path d="M832 75 c0 -16 2 -22 5 -12 2 9 2 23 0 30 -3 6 -5 -1 -5 -18z"/>
<path d="M873 82 c12 -13 14 -22 7 -25 -6 -3 -6 -5 2 -3 21 4 19 21 -4 35 -23
14 -23 13 -5 -7z"/>
<path d="M1016 91 c-10 -15 5 -41 22 -41 13 0 13 2 -3 13 -10 8 -15 19 -11 25
4 7 5 12 2 12 -3 0 -7 -4 -10 -9z"/>
<path d="M1154 75 c1 -12 9 -21 21 -22 14 -1 15 0 3 3 -9 3 -19 13 -21 22 -3
12 -4 11 -3 -3z"/>
<path d="M1298 75 c6 -32 12 -32 12 0 0 14 -4 25 -9 25 -4 0 -6 -11 -3 -25z"/>
<path d="M1602 85 c2 -14 -2 -20 -14 -19 -10 1 -15 -2 -12 -7 7 -12 31 -11 39
1 3 5 1 18 -5 27 -10 17 -10 16 -8 -2z"/>
<path d="M1648 53 c6 -2 18 -2 25 0 6 3 1 5 -13 5 -14 0 -19 -2 -12 -5z"/>
</g>
</svg>
