<?xml version="1.0" standalone="no"?>
<!DOCTYPE svg PUBLIC "-//W3C//DTD SVG 20010904//EN"
 "http://www.w3.org/TR/2001/REC-SVG-20010904/DTD/svg10.dtd">
<svg version="1.0" xmlns="http://www.w3.org/2000/svg"
 width="980.000000pt" height="980.000000pt" viewBox="0 0 980.000000 980.000000"
 preserveAspectRatio="xMidYMid meet">

<g transform="translate(0.000000,980.000000) scale(0.100000,-0.100000)"
fill="#000000" stroke="none">
<path d="M4445 6974 c-316 -31 -544 -91 -782 -204 -268 -128 -459 -268 -673
-496 -291 -309 -495 -752 -550 -1194 -15 -123 -12 -411 5 -544 126 -959 892
-1725 1851 -1851 132 -17 398 -20 529 -5 465 53 902 258 1240 581 51 49 95 89
99 89 3 0 6 -14 6 -30 0 -43 35 -141 71 -200 61 -99 192 -188 308 -210 245
-46 467 83 553 321 23 64 23 67 28 708 l5 645 31 8 c52 13 127 70 161 120 41
62 53 122 53 271 l1 122 61 30 c33 17 97 59 141 95 230 186 356 500 317 790
-39 295 -202 535 -461 679 -173 96 -425 129 -626 81 -345 -82 -611 -365 -673
-716 -18 -99 -8 -287 20 -383 70 -244 233 -446 447 -554 l51 -26 4 -158 c3
-140 6 -163 26 -200 41 -78 110 -130 210 -159 20 -6 17 -1212 -3 -1280 -57
-193 -312 -248 -445 -96 -67 76 -70 95 -70 528 0 359 -1 386 -21 450 -26 87
-65 147 -134 213 -262 248 -698 119 -790 -234 -11 -45 -15 -114 -15 -285 l0
-225 -82 -52 c-68 -42 -208 -113 -224 -113 -24 0 -134 601 -134 732 0 115 66
220 168 270 48 23 152 36 296 37 68 1 85 5 125 30 72 44 136 69 216 86 93 19
137 19 233 -1 175 -35 315 -134 405 -286 61 -103 79 -172 86 -343 l6 -150 47
110 c73 174 148 440 148 527 0 15 -20 42 -54 76 -92 91 -125 182 -126 344 l0
96 -83 55 c-289 193 -460 532 -444 882 6 125 36 268 75 353 l19 43 -71 68
c-294 277 -714 475 -1137 536 -107 15 -369 27 -444 19z m2741 -393 c95 -25
157 -54 229 -106 350 -249 390 -744 86 -1045 -138 -137 -263 -191 -457 -198
-101 -4 -132 -1 -198 17 -204 56 -356 180 -447 367 -54 112 -72 202 -66 334
15 304 217 553 511 630 97 26 250 26 342 1z m-2484 -331 c144 -14 228 -31 228
-47 0 -19 -112 -278 -176 -406 -121 -241 -171 -309 -258 -352 -64 -31 -170
-36 -231 -11 -87 37 -396 265 -580 429 l-49 44 84 62 c248 182 535 281 845
289 22 1 84 -3 137 -8z m742 -282 c85 -62 210 -189 289 -293 148 -197 252
-463 274 -703 l6 -64 -44 6 c-24 3 -78 8 -119 11 -216 17 -537 71 -613 104
-56 25 -114 83 -143 145 -29 61 -32 155 -8 237 51 180 182 541 225 621 10 19
11 19 42 -1 18 -11 59 -39 91 -63z m-1976 -460 c48 -40 166 -152 262 -248 203
-201 232 -246 233 -353 1 -124 -39 -191 -180 -298 -188 -144 -487 -339 -519
-339 -14 0 -65 152 -91 270 -22 105 -26 449 -5 545 19 88 70 249 98 314 38 86
94 181 106 181 6 0 49 -33 96 -72z m1212 -502 c64 -30 103 -89 108 -166 5 -70
-8 -111 -52 -158 -105 -114 -276 -89 -347 50 -40 79 -13 201 57 254 70 54 149
61 234 20z m1240 -702 c0 -3 -18 -44 -40 -91 -43 -93 -148 -256 -203 -318
l-36 -40 0 125 c-1 111 2 131 23 175 29 60 76 107 136 134 42 19 120 29 120
15z m-1565 -59 c22 -11 60 -40 85 -65 38 -37 53 -65 87 -155 67 -179 173 -557
173 -615 l0 -23 -167 6 c-99 3 -198 12 -242 22 -189 42 -384 127 -536 233 -88
62 -277 240 -272 255 10 30 552 326 651 357 51 15 176 7 221 -15z"/>
<path d="M6687 6412 c-10 -10 -17 -28 -17 -40 0 -12 40 -102 89 -201 84 -166
89 -180 81 -216 -30 -131 91 -250 217 -216 63 16 102 46 124 95 50 110 -14
239 -131 261 -31 6 -49 26 -158 171 -116 153 -126 164 -156 164 -19 0 -40 -8
-49 -18z"/>
</g>
</svg>
